<?xml version="1.0" encoding="utf-8"?>
<!-- Generator: Adobe Illustrator 16.0.4, SVG Export Plug-In . SVG Version: 6.00 Build 0)  -->
<!DOCTYPE svg PUBLIC "-//W3C//DTD SVG 1.1//EN" "http://www.w3.org/Graphics/SVG/1.1/DTD/svg11.dtd">
<svg version="1.1" id="Ebene_1" xmlns="http://www.w3.org/2000/svg" xmlns:xlink="http://www.w3.org/1999/xlink" x="0px" y="0px"
	 width="38.225px" height="60.476px" viewBox="0 0 38.225 60.476" enable-background="new 0 0 38.225 60.476" xml:space="preserve">
<rect x="9.556" y="8.858" fill="#B70F75" width="11.467" height="10.63"/>
<rect x="9.556" y="38.979" fill="#B70F75" width="11.467" height="3.543"/>
<rect x="9.556" y="23.032" fill="#B70F75" width="11.467" height="3.543"/>
<path fill="#B70F75" d="M28.668,26.576h3.822v3.543h-3.822V26.576z M28.668,19.489h3.822v3.543h-3.822V19.489z M5.734,5.315h19.112
	v24.804H5.734V5.315z M28.668,5.315h3.822v10.63h-3.822V5.315z M0,35.435h38.225V0H0V35.435z"/>
<polygon fill="#B70F75" points="24.846,38.979 24.846,46.066 5.734,46.066 5.734,38.979 0,38.979 0,60.476 38.225,60.476 
	38.225,38.979 "/>
<g>
</g>
<g>
</g>
<g>
</g>
<g>
</g>
<g>
</g>
<g>
</g>
<g>
</g>
<g>
</g>
<g>
</g>
<g>
</g>
<g>
</g>
<g>
</g>
<g>
</g>
<g>
</g>
<g>
</g>
</svg>
