<?xml version="1.0" encoding="utf-8"?>
<!-- Generator: Adobe Illustrator 16.0.4, SVG Export Plug-In . SVG Version: 6.00 Build 0)  -->
<!DOCTYPE svg PUBLIC "-//W3C//DTD SVG 1.1//EN" "http://www.w3.org/Graphics/SVG/1.1/DTD/svg11.dtd">
<svg version="1.1" id="Ebene_1" xmlns="http://www.w3.org/2000/svg" xmlns:xlink="http://www.w3.org/1999/xlink" x="0px" y="0px"
	 width="25.332px" height="32.289px" viewBox="0 0 25.332 32.289" enable-background="new 0 0 25.332 32.289" xml:space="preserve">
<g>
	<defs>
		<rect id="SVGID_1_" width="25.332" height="32.289"/>
	</defs>
	<clipPath id="SVGID_2_">
		<use xlink:href="#SVGID_1_"  overflow="visible"/>
	</clipPath>
	<path clip-path="url(#SVGID_2_)" fill="#FFFFFF" d="M9.698,6.402V4.901c0-1.637,1.331-2.968,2.968-2.968
		c1.637,0,2.968,1.331,2.968,2.968v1.501H9.698z M25.326,31.214L22.604,7.26c-0.055-0.488-0.469-0.857-0.96-0.857h-4.078V4.901
		c0-2.702-2.197-4.9-4.901-4.9c-2.703,0-4.901,2.198-4.901,4.9v1.501H3.688c-0.492,0-0.905,0.369-0.961,0.857L0.006,31.214
		c-0.031,0.273,0.056,0.547,0.24,0.752c0.183,0.206,0.445,0.323,0.721,0.323h23.398c0.275,0,0.537-0.117,0.721-0.323
		C25.27,31.761,25.357,31.487,25.326,31.214"/>
</g>
<g>
</g>
<g>
</g>
<g>
</g>
<g>
</g>
<g>
</g>
<g>
</g>
<g>
</g>
<g>
</g>
<g>
</g>
<g>
</g>
<g>
</g>
<g>
</g>
<g>
</g>
<g>
</g>
<g>
</g>
</svg>
