<?xml version="1.0" encoding="utf-8"?>
<!-- Generator: Adobe Illustrator 16.0.4, SVG Export Plug-In . SVG Version: 6.00 Build 0)  -->
<!DOCTYPE svg PUBLIC "-//W3C//DTD SVG 1.1//EN" "http://www.w3.org/Graphics/SVG/1.1/DTD/svg11.dtd">
<svg version="1.1" id="Ebene_1" xmlns="http://www.w3.org/2000/svg" xmlns:xlink="http://www.w3.org/1999/xlink" x="0px" y="0px"
	 width="82.973px" height="113.012px" viewBox="0 0 82.973 113.012" enable-background="new 0 0 82.973 113.012"
	 xml:space="preserve">
<g>
	<defs>
		<rect id="SVGID_1_" width="82.973" height="113.012"/>
	</defs>
	<clipPath id="SVGID_2_">
		<use xlink:href="#SVGID_1_"  overflow="visible"/>
	</clipPath>
	<path clip-path="url(#SVGID_2_)" fill="#E29FC8" d="M23.556,90.844l1.604-21.373c0.976-10.639,0.38-21.361-1.767-31.825
		l-0.978-4.766c-0.803-3.917-3.355-7.167-6.811-8.917c0.025-0.027,0.05-0.056,0.075-0.084c0.032-0.035,0.063-0.07,0.095-0.106
		c0.093-0.106,0.185-0.213,0.275-0.321c0.032-0.039,0.063-0.079,0.095-0.118c0.089-0.11,0.178-0.223,0.264-0.338
		c0.009-0.012,0.018-0.023,0.027-0.037c0.179-0.24,0.348-0.485,0.509-0.736c0.029-0.045,0.058-0.089,0.086-0.134
		c0.063-0.1,0.123-0.203,0.183-0.306c0.042-0.071,0.083-0.141,0.122-0.211c0.056-0.098,0.109-0.196,0.16-0.295
		c0.042-0.08,0.084-0.161,0.124-0.242c0.048-0.096,0.095-0.191,0.14-0.288c0.044-0.091,0.083-0.184,0.125-0.277
		c0.038-0.089,0.079-0.178,0.116-0.267c0.072-0.175,0.141-0.35,0.205-0.529c0.025-0.071,0.049-0.146,0.074-0.219
		c0.04-0.121,0.081-0.241,0.118-0.362c0.025-0.083,0.049-0.166,0.073-0.25c0.033-0.114,0.064-0.23,0.094-0.347
		c0.021-0.084,0.041-0.167,0.061-0.252c0.028-0.123,0.054-0.246,0.079-0.37c0.016-0.078,0.032-0.156,0.046-0.234
		c0.028-0.152,0.051-0.308,0.074-0.462c0.007-0.05,0.016-0.1,0.022-0.149c0.027-0.204,0.048-0.409,0.065-0.616
		c0.004-0.06,0.007-0.122,0.011-0.183c0.01-0.149,0.018-0.299,0.022-0.45c0.003-0.076,0.003-0.153,0.004-0.23
		c0.001-0.139,0.001-0.276-0.002-0.417c-0.001-0.079-0.003-0.156-0.007-0.235c-0.005-0.147-0.015-0.294-0.026-0.443
		c-0.004-0.068-0.008-0.137-0.014-0.205c-0.02-0.216-0.044-0.432-0.074-0.648c-1.4-6.82-6.744-12.142-13.568-13.513
		c-0.09-0.018-0.18-0.033-0.268-0.046C4.961,0.037,4.936,0.035,4.91,0.032c-0.063-0.007-0.125-0.015-0.188-0.02
		C4.69,0.009,4.661,0.009,4.63,0.007C4.573,0.004,4.514,0,4.457-0.001C4.426-0.001,4.396,0,4.366,0C4.308,0,4.25,0.001,4.193,0.003
		c-0.03,0.001-0.06,0.004-0.09,0.006C4.047,0.013,3.991,0.018,3.935,0.022C3.906,0.025,3.876,0.029,3.849,0.033
		C3.791,0.04,3.734,0.047,3.679,0.058C3.65,0.061,3.625,0.066,3.598,0.071C3.54,0.081,3.481,0.093,3.425,0.106
		c-0.025,0.006-0.05,0.011-0.074,0.018C3.292,0.139,3.233,0.153,3.177,0.17C3.154,0.176,3.132,0.184,3.108,0.191
		C3.05,0.209,2.991,0.229,2.933,0.249c-0.02,0.006-0.04,0.015-0.06,0.022c-0.06,0.021-0.12,0.045-0.179,0.069
		C2.676,0.349,2.659,0.356,2.642,0.364C2.581,0.391,2.52,0.418,2.46,0.447C2.446,0.454,2.432,0.462,2.417,0.469
		C2.354,0.5,2.293,0.534,2.232,0.568c-0.011,0.006-0.023,0.013-0.035,0.02C2.136,0.624,2.074,0.662,2.013,0.701
		C2.003,0.707,1.996,0.712,1.987,0.718C1.922,0.76,1.861,0.803,1.799,0.849C1.793,0.853,1.788,0.856,1.783,0.86
		C1.719,0.908,1.656,0.957,1.594,1.008C1.592,1.01,1.588,1.013,1.586,1.015C0.582,1.85-0.055,3.126,0.003,4.57l1.45,23.622h0.004
		l2.49,60.21c-1.07,1.405-1.677,3.177-1.598,5.08l1.038,17.728"/>
	<path clip-path="url(#SVGID_2_)" fill="#E29FC8" d="M79.013,87.895c-0.083-0.096-0.166-0.192-0.252-0.286
		c-0.144-0.159-0.288-0.315-0.437-0.468c-0.674-0.688-1.404-1.304-2.183-1.843c-0.142-0.099-0.286-0.193-0.431-0.287
		c-0.419-0.269-0.852-0.516-1.295-0.737c-0.112-0.057-0.225-0.111-0.338-0.164c-0.127-0.06-0.256-0.118-0.387-0.175
		c-0.099-0.042-0.197-0.084-0.298-0.124c-0.43-0.174-0.868-0.328-1.315-0.458c-1.738-0.504-3.596-0.666-5.504-0.415l-48.49,6.365
		L3.177,110.96c0.29,1.202,1.367,2.052,2.604,2.052h1.123h1.599h9.806h44.066h3.232c0.112,0,0.225-0.003,0.336-0.008
		c3.445-0.176,6.185-3.024,6.185-6.514v-1.446h5.188c3.125,0,5.656-2.771,5.656-6.188C82.973,94.588,81.459,90.747,79.013,87.895"/>
</g>
<g>
</g>
<g>
</g>
<g>
</g>
<g>
</g>
<g>
</g>
<g>
</g>
<g>
</g>
<g>
</g>
<g>
</g>
<g>
</g>
<g>
</g>
<g>
</g>
<g>
</g>
<g>
</g>
<g>
</g>
</svg>
