<?xml version="1.0" encoding="utf-8"?>
<!-- Generator: Adobe Illustrator 16.0.4, SVG Export Plug-In . SVG Version: 6.00 Build 0)  -->
<!DOCTYPE svg PUBLIC "-//W3C//DTD SVG 1.1//EN" "http://www.w3.org/Graphics/SVG/1.1/DTD/svg11.dtd">
<svg version="1.1" id="Ebene_1" xmlns="http://www.w3.org/2000/svg" xmlns:xlink="http://www.w3.org/1999/xlink" x="0px" y="0px"
	 width="182.072px" height="183.39px" viewBox="0 0 182.072 183.39" enable-background="new 0 0 182.072 183.39"
	 xml:space="preserve">
<g>
	<defs>
		<rect id="SVGID_1_" width="182.072" height="183.39"/>
	</defs>
	<clipPath id="SVGID_2_">
		<use xlink:href="#SVGID_1_"  overflow="visible"/>
	</clipPath>
	<path clip-path="url(#SVGID_2_)" fill="#DB87BA" d="M67.151,24.136c-0.742-0.744-1.76-1.154-2.8-1.131
		c-1.055,0.031-2.042,0.486-2.747,1.259c-23.05,25.374-10.512,80.24-9.198,85.667L1.123,162.92C0.403,163.633,0,164.613,0,165.628
		c0,1.019,0.402,1.998,1.122,2.719l13.928,13.919c0.744,0.752,1.731,1.123,2.71,1.123c0.98,0,1.965-0.371,2.717-1.123l51.275-52.974
		c11.248,2.891,25.32,4.615,37.744,4.615c14.914,0,35.339-2.398,47.93-13.813c0.774-0.705,1.229-1.699,1.253-2.748
		c0.031-1.047-0.379-2.064-1.123-2.809L67.151,24.136z"/>
	<path clip-path="url(#SVGID_2_)" fill="#DB87BA" d="M100.54,46.974c0.752,0.752,1.731,1.131,2.711,1.131
		c0.985,0,1.964-0.379,2.716-1.131l28.645-28.644c2.025-2.026,3.141-4.721,3.141-7.589c0-2.87-1.115-5.573-3.141-7.599
		C132.584,1.115,129.883,0,127.021,0c-2.871,0-5.57,1.115-7.598,3.142L90.78,31.787c-1.504,1.502-1.504,3.931,0,5.433L100.54,46.974
		z"/>
	<path clip-path="url(#SVGID_2_)" fill="#DB87BA" d="M178.937,47.467c-2.034-2.027-4.729-3.142-7.598-3.142
		c-2.869,0-5.564,1.115-7.591,3.142l-28.651,28.644c-0.722,0.721-1.123,1.7-1.123,2.718c0,1.017,0.401,1.988,1.123,2.709l9.762,9.76
		c0.75,0.752,1.729,1.125,2.716,1.125c0.979,0,1.966-0.373,2.711-1.125l28.651-28.644C183.117,58.464,183.117,51.656,178.937,47.467
		"/>
</g>
<g>
</g>
<g>
</g>
<g>
</g>
<g>
</g>
<g>
</g>
<g>
</g>
<g>
</g>
<g>
</g>
<g>
</g>
<g>
</g>
<g>
</g>
<g>
</g>
<g>
</g>
<g>
</g>
<g>
</g>
</svg>
