<?xml version="1.0" encoding="utf-8"?>
<!-- Generator: Adobe Illustrator 16.0.4, SVG Export Plug-In . SVG Version: 6.00 Build 0)  -->
<!DOCTYPE svg PUBLIC "-//W3C//DTD SVG 1.1//EN" "http://www.w3.org/Graphics/SVG/1.1/DTD/svg11.dtd">
<svg version="1.1" id="Ebene_1" xmlns="http://www.w3.org/2000/svg" xmlns:xlink="http://www.w3.org/1999/xlink" x="0px" y="0px"
	 width="118.721px" height="89.361px" viewBox="0 0 118.721 89.361" enable-background="new 0 0 118.721 89.361"
	 xml:space="preserve">
<g>
	<defs>
		<rect id="SVGID_1_" width="118.721" height="89.361"/>
	</defs>
	<clipPath id="SVGID_2_">
		<use xlink:href="#SVGID_1_"  overflow="visible"/>
	</clipPath>
	<path clip-path="url(#SVGID_2_)" fill="#DB87BA" d="M73.495,75.482c0,7.654-6.196,13.879-13.843,13.879
		c-7.683,0-13.879-6.225-13.879-13.879c0-7.676,6.196-13.872,13.879-13.872C67.299,61.61,73.495,67.807,73.495,75.482"/>
	<path clip-path="url(#SVGID_2_)" fill="#DB87BA" d="M92.785,42.071c-0.193-0.229-0.416-0.422-0.637-0.615l-0.613-0.586
		c-0.115-0.114-0.229-0.2-0.365-0.277c-17.926-16.31-45.368-15.666-62.477,1.449l-2.015,2.037l-2.788,2.767
		c-3.38,3.373-3.38,8.904,0.029,12.277c3.401,3.409,8.905,3.409,12.278,0.029l4.802-4.774c10.892-10.885,28.587-10.885,39.479-0.028
		l3.459,3.352c3.353,3.353,8.798,3.353,12.171-0.028c1.623-1.615,2.545-3.767,2.545-6.081c0-2.295-0.894-4.468-2.516-6.091
		L92.785,42.071z"/>
	<path clip-path="url(#SVGID_2_)" fill="#DB87BA" d="M116.404,24.897l-2.873-2.873c0,0,0-0.028-0.028-0.028l-2.294-2.287
		c-0.387-0.394-0.836-0.729-1.279-1.036C80.699-6.984,36.225-6.197,7.917,21.017c-0.136,0.144-0.279,0.229-0.414,0.365l-5.196,5.195
		c-3.095,3.095-3.066,8.091,0.029,11.191c3.101,3.103,8.097,3.13,11.198,0.029l5.189-5.196c0.057-0.027,0.086-0.079,0.115-0.106
		c22.891-22.112,59.182-22.256,82.266-0.45l4.08,4.102c3.096,3.073,8.119,3.073,11.221-0.021
		C119.479,33.023,119.507,28,116.404,24.897"/>
</g>
<g>
</g>
<g>
</g>
<g>
</g>
<g>
</g>
<g>
</g>
<g>
</g>
<g>
</g>
<g>
</g>
<g>
</g>
<g>
</g>
<g>
</g>
<g>
</g>
<g>
</g>
<g>
</g>
<g>
</g>
</svg>
