<?xml version="1.0" encoding="utf-8"?>
<!-- Generator: Adobe Illustrator 16.0.4, SVG Export Plug-In . SVG Version: 6.00 Build 0)  -->
<!DOCTYPE svg PUBLIC "-//W3C//DTD SVG 1.1//EN" "http://www.w3.org/Graphics/SVG/1.1/DTD/svg11.dtd">
<svg version="1.1" id="Ebene_1" xmlns="http://www.w3.org/2000/svg" xmlns:xlink="http://www.w3.org/1999/xlink" x="0px" y="0px"
	 width="80.914px" height="97.499px" viewBox="0 0 80.914 97.499" enable-background="new 0 0 80.914 97.499" xml:space="preserve">
<g>
	<defs>
		<rect id="SVGID_1_" width="80.914" height="97.499"/>
	</defs>
	<clipPath id="SVGID_2_">
		<use xlink:href="#SVGID_1_"  overflow="visible"/>
	</clipPath>
	<path clip-path="url(#SVGID_2_)" fill="#E9B7D6" d="M78.023,4.886v22.118h-2.889V8.142c0-0.899-0.646-1.628-1.445-1.628H42.086
		v86.774h-3.258V6.514h-31.6c-0.798,0-1.445,0.729-1.445,1.628v86.101h-2.89V4.886c0-0.9,0.647-1.629,1.446-1.629h72.24
		C77.378,3.257,78.023,3.985,78.023,4.886 M11.148,24.426c0.006-4.494,3.648-8.137,8.142-8.143h4.886
		c4.494,0.006,8.136,3.648,8.141,8.143v26.396c-0.005,4.495-3.647,8.138-8.141,8.143H19.29c-4.494-0.005-8.136-3.647-8.142-8.143
		V24.426z M49.122,24.426c0.006-4.494,3.647-8.137,8.142-8.143h4.887c4.494,0.006,8.136,3.648,8.141,8.143v26.396
		c-0.005,4.495-3.646,8.138-8.141,8.143h-4.887c-4.494-0.005-8.136-3.647-8.142-8.143V24.426z M80.914,4.886
		C80.914,2.187,78.973,0,76.579,0H4.339C1.944,0,0.004,2.187,0.004,4.886L0,97.498h80.913L80.914,4.886z"/>
</g>
<g>
</g>
<g>
</g>
<g>
</g>
<g>
</g>
<g>
</g>
<g>
</g>
<g>
</g>
<g>
</g>
<g>
</g>
<g>
</g>
<g>
</g>
<g>
</g>
<g>
</g>
<g>
</g>
<g>
</g>
</svg>
