<?xml version="1.0" encoding="utf-8"?>
<!-- Generator: Adobe Illustrator 16.0.4, SVG Export Plug-In . SVG Version: 6.00 Build 0)  -->
<!DOCTYPE svg PUBLIC "-//W3C//DTD SVG 1.1//EN" "http://www.w3.org/Graphics/SVG/1.1/DTD/svg11.dtd">
<svg version="1.1" id="Ebene_1" xmlns="http://www.w3.org/2000/svg" xmlns:xlink="http://www.w3.org/1999/xlink" x="0px" y="0px"
	 width="322px" height="195.701px" viewBox="0 0 322 195.701" enable-background="new 0 0 322 195.701" xml:space="preserve">
<g>
	<defs>
		<rect id="SVGID_1_" width="322" height="195.701"/>
	</defs>
	<clipPath id="SVGID_2_">
		<use xlink:href="#SVGID_1_"  overflow="visible"/>
	</clipPath>
	<path clip-path="url(#SVGID_2_)" fill="#E6ABCF" d="M262.104,128.258l-6.908-3.988l5.985-3.529c1.105-0.65,1.473-2.074,0.821-3.179
		c-0.65-1.104-2.073-1.471-3.178-0.821l-8.247,4.863l-12.433-7.179l12.431-7.177l8.249,4.861c0.37,0.218,0.774,0.322,1.175,0.322
		c0.795,0,1.571-0.41,2.003-1.144c0.651-1.104,0.284-2.527-0.821-3.179l-5.987-3.527l6.91-3.989c1.11-0.641,1.489-2.062,0.849-3.17
		c-0.641-1.111-2.059-1.492-3.17-0.852l-6.908,3.989l-0.062-6.95c-0.013-1.281-1.064-2.317-2.343-2.301
		c-1.281,0.013-2.312,1.061-2.3,2.343l0.086,9.573l-12.433,7.179V96.049l8.337-4.709c1.115-0.632,1.508-2.048,0.878-3.163
		c-0.63-1.117-2.048-1.509-3.163-0.88l-6.052,3.421v-7.979c0-1.28-1.039-2.32-2.321-2.32c-1.281,0-2.321,1.04-2.321,2.32v7.979
		l-6.051-3.421c-1.117-0.629-2.533-0.237-3.163,0.88c-0.631,1.115-0.236,2.531,0.878,3.163l8.336,4.711v14.354l-12.434-7.179
		l0.088-9.573c0.011-1.282-1.018-2.33-2.301-2.343h-0.021c-1.271,0-2.309,1.025-2.319,2.301l-0.063,6.95l-6.909-3.989
		c-1.108-0.641-2.528-0.26-3.17,0.852c-0.641,1.108-0.26,2.529,0.85,3.17l6.91,3.989l-5.988,3.529
		c-1.104,0.649-1.472,2.073-0.82,3.178c0.433,0.734,1.206,1.143,2,1.143c0.401,0,0.808-0.103,1.178-0.322l8.25-4.86l12.432,7.177
		l-12.435,7.179l-8.247-4.864c-1.104-0.649-2.528-0.283-3.178,0.821c-0.651,1.104-0.284,2.528,0.819,3.177l5.988,3.531l-6.909,3.988
		c-1.109,0.641-1.49,2.061-0.85,3.17c0.432,0.745,1.211,1.16,2.014,1.16c0.393,0,0.792-0.1,1.156-0.312l6.909-3.986l0.063,6.949
		c0.011,1.276,1.047,2.301,2.319,2.301h0.021c1.283-0.013,2.312-1.06,2.3-2.343l-0.087-9.574l12.434-7.178V132.8l-8.336,4.712
		c-1.114,0.631-1.509,2.047-0.878,3.162c0.428,0.756,1.214,1.18,2.022,1.18c0.387,0,0.78-0.096,1.141-0.301l6.051-3.421v7.979
		c0,1.281,1.04,2.32,2.321,2.32c1.282,0,2.321-1.039,2.321-2.32v-7.979l6.052,3.421c0.361,0.205,0.752,0.301,1.139,0.301
		c0.811,0,1.598-0.424,2.024-1.18c0.63-1.115,0.237-2.531-0.878-3.162l-8.337-4.712v-14.354l12.433,7.178l-0.088,9.574
		c-0.012,1.281,1.018,2.33,2.299,2.343h0.022c1.271,0,2.309-1.024,2.32-2.299l0.064-6.951l6.908,3.988
		c0.366,0.21,0.764,0.312,1.159,0.312c0.802,0,1.582-0.417,2.011-1.162C263.595,130.318,263.215,128.898,262.104,128.258"/>
	<path clip-path="url(#SVGID_2_)" fill="#E6ABCF" d="M321.365,26.171l-3.779-2.182l3.274-1.931c0.604-0.356,0.806-1.134,0.449-1.739
		c-0.356-0.603-1.135-0.804-1.739-0.449l-4.512,2.661l-6.801-3.928l6.801-3.926l4.512,2.66c0.203,0.119,0.425,0.176,0.644,0.176
		c0.435,0,0.859-0.224,1.096-0.626c0.356-0.603,0.155-1.382-0.449-1.738l-3.275-1.931l3.78-2.182
		c0.607-0.35,0.814-1.127,0.465-1.734c-0.352-0.608-1.127-0.816-1.735-0.465l-3.779,2.182l-0.033-3.803
		c-0.008-0.701-0.582-1.268-1.281-1.258c-0.701,0.007-1.266,0.58-1.258,1.281l0.047,5.238l-6.802,3.927V8.55l4.561-2.576
		c0.61-0.346,0.825-1.12,0.479-1.73c-0.345-0.611-1.119-0.826-1.729-0.481l-3.311,1.871V1.27c0-0.701-0.568-1.27-1.271-1.27
		c-0.701,0-1.269,0.569-1.269,1.27v4.364l-3.312-1.871c-0.611-0.345-1.385-0.13-1.729,0.481c-0.347,0.61-0.131,1.384,0.479,1.73
		l4.562,2.577v7.853l-6.804-3.927l0.048-5.238c0.007-0.701-0.557-1.274-1.259-1.281h-0.011c-0.695,0-1.263,0.561-1.27,1.258
		l-0.034,3.803l-3.779-2.182c-0.607-0.351-1.384-0.143-1.734,0.465c-0.351,0.607-0.143,1.384,0.464,1.734l3.78,2.182l-3.274,1.932
		c-0.605,0.355-0.807,1.134-0.449,1.738c0.236,0.402,0.659,0.625,1.094,0.625c0.219,0,0.442-0.056,0.645-0.176l4.513-2.659
		l6.801,3.926l-6.802,3.927l-4.512-2.661c-0.604-0.355-1.384-0.155-1.738,0.449c-0.357,0.605-0.156,1.383,0.448,1.739l3.274,1.931
		l-3.779,2.182c-0.606,0.35-0.814,1.127-0.464,1.734c0.235,0.408,0.662,0.635,1.102,0.635c0.214,0,0.433-0.054,0.633-0.17
		l3.779-2.182l0.034,3.803c0.007,0.698,0.573,1.258,1.27,1.258h0.011c0.702-0.007,1.266-0.579,1.259-1.281l-0.048-5.239l6.804-3.926
		v7.853l-4.562,2.577c-0.61,0.346-0.826,1.12-0.479,1.73c0.232,0.414,0.664,0.646,1.105,0.646c0.212,0,0.427-0.053,0.624-0.165
		l3.312-1.871v4.365c0,0.701,0.567,1.269,1.269,1.269c0.702,0,1.271-0.568,1.271-1.269v-4.365l3.311,1.871
		c0.197,0.112,0.411,0.165,0.623,0.165c0.443,0,0.874-0.232,1.106-0.646c0.346-0.61,0.131-1.384-0.479-1.73l-4.561-2.577v-7.853
		l6.802,3.926l-0.048,5.239c-0.008,0.701,0.556,1.274,1.257,1.281h0.012c0.696,0,1.263-0.56,1.269-1.257l0.036-3.804l3.779,2.183
		c0.2,0.115,0.418,0.17,0.634,0.17c0.439,0,0.866-0.228,1.102-0.636C322.181,27.298,321.973,26.521,321.365,26.171"/>
	<path clip-path="url(#SVGID_2_)" fill="#E6ABCF" d="M301.691,183.286l-3.534-1.24l2.353-2.264c0.435-0.418,0.456-1.133,0.049-1.598
		c-0.406-0.465-1.089-0.503-1.522-0.086l-3.241,3.117l-6.359-2.234l4.9-4.626l4.23,1.53c0.188,0.068,0.384,0.079,0.564,0.04
		c0.36-0.076,0.669-0.347,0.791-0.739c0.183-0.59-0.128-1.234-0.694-1.439l-3.07-1.109l2.724-2.571
		c0.438-0.413,0.465-1.129,0.063-1.597c-0.403-0.469-1.085-0.514-1.522-0.101l-2.724,2.57l-0.734-3.314
		c-0.136-0.611-0.717-1.005-1.294-0.874c-0.58,0.13-0.939,0.729-0.804,1.341l1.011,4.565l-4.902,4.628l-1.457-6.86l3.298-3.052
		c0.439-0.41,0.475-1.124,0.075-1.597c-0.398-0.473-1.08-0.523-1.521-0.115l-2.393,2.217l-0.811-3.812
		c-0.131-0.611-0.707-1.009-1.287-0.886c-0.581,0.124-0.946,0.721-0.815,1.333l0.811,3.812l-3.089-1.052
		c-0.569-0.192-1.171,0.13-1.343,0.726c-0.172,0.593,0.149,1.231,0.719,1.426l4.254,1.449l1.458,6.858l-6.36-2.232l-0.933-4.583
		c-0.126-0.614-0.698-1.016-1.28-0.898l-0.01,0.002c-0.575,0.123-0.941,0.712-0.817,1.323l0.678,3.327l-3.534-1.241
		c-0.567-0.2-1.171,0.119-1.349,0.711s0.139,1.234,0.706,1.434l3.534,1.24l-2.353,2.264c-0.435,0.417-0.456,1.133-0.049,1.598
		c0.27,0.309,0.662,0.43,1.021,0.353c0.181-0.038,0.355-0.127,0.501-0.267l3.242-3.117l6.359,2.233l-4.902,4.627l-4.229-1.53
		c-0.565-0.204-1.174,0.108-1.355,0.698c-0.183,0.59,0.128,1.234,0.694,1.439l3.069,1.11l-2.723,2.571
		c-0.438,0.413-0.466,1.128-0.063,1.596c0.271,0.315,0.666,0.438,1.029,0.361c0.178-0.038,0.349-0.124,0.493-0.261l2.724-2.57
		l0.734,3.315c0.135,0.608,0.708,0.998,1.285,0.875c0.003-0.001,0.006-0.001,0.009-0.002c0.58-0.129,0.94-0.728,0.804-1.34
		l-1.012-4.567l4.903-4.627l1.458,6.859l-3.297,3.054c-0.441,0.409-0.477,1.124-0.077,1.597c0.27,0.319,0.67,0.446,1.036,0.369
		c0.175-0.037,0.343-0.121,0.485-0.255l2.394-2.217l0.811,3.812c0.13,0.612,0.706,1.009,1.286,0.886
		c0.581-0.124,0.946-0.72,0.816-1.333l-0.811-3.812l3.088,1.053c0.185,0.062,0.371,0.071,0.546,0.034
		c0.367-0.078,0.682-0.356,0.797-0.759c0.173-0.594-0.149-1.232-0.719-1.427l-4.254-1.449l-1.458-6.858l6.36,2.232l0.933,4.584
		c0.124,0.613,0.697,1.016,1.279,0.898c0.003-0.001,0.006-0.002,0.01-0.003c0.575-0.122,0.941-0.711,0.817-1.321l-0.678-3.328
		l3.534,1.241c0.188,0.065,0.378,0.075,0.558,0.037c0.362-0.077,0.674-0.353,0.793-0.749
		C302.576,184.127,302.259,183.484,301.691,183.286"/>
	<path clip-path="url(#SVGID_2_)" fill="#E6ABCF" d="M240.682,0.204c-12.743,0-24.534,6.931-30.771,18.089l-1.47,2.629l7.925,4.536
		l1.499-2.688c4.62-8.288,13.363-13.438,22.817-13.438c14.394,0,26.103,11.709,26.103,26.102c0,6.864-2.655,13.351-7.476,18.265
		c-4.746,4.839-11.056,7.61-17.793,7.822H0v9.128h239.915l0.176,0.005c0.197,0.005,0.394,0.01,0.591,0.01
		c19.427,0,35.23-15.804,35.23-35.23C275.912,16.008,260.108,0.204,240.682,0.204"/>
	<path clip-path="url(#SVGID_2_)" fill="#E6ABCF" d="M155.484,97.135c-0.199,0-0.398,0.005-0.596,0.01L0,97.149v9.128h154.723
		l1.581-0.001c6.741,0.209,13.056,2.98,17.807,7.823c4.82,4.914,7.475,11.401,7.475,18.265c0,14.394-11.709,26.103-26.102,26.103
		c-9.454,0-18.198-5.149-22.818-13.439l-1.499-2.688l-7.925,4.537l1.469,2.629c6.238,11.158,18.03,18.089,30.773,18.089
		c19.426,0,35.229-15.804,35.229-35.23C190.714,112.938,174.91,97.135,155.484,97.135"/>
</g>
<g>
</g>
<g>
</g>
<g>
</g>
<g>
</g>
<g>
</g>
<g>
</g>
<g>
</g>
<g>
</g>
<g>
</g>
<g>
</g>
<g>
</g>
<g>
</g>
<g>
</g>
<g>
</g>
<g>
</g>
</svg>
