<?xml version="1.0" encoding="utf-8"?>
<!-- Generator: Adobe Illustrator 16.0.4, SVG Export Plug-In . SVG Version: 6.00 Build 0)  -->
<!DOCTYPE svg PUBLIC "-//W3C//DTD SVG 1.1//EN" "http://www.w3.org/Graphics/SVG/1.1/DTD/svg11.dtd">
<svg version="1.1" id="Ebene_1"
	xmlns="http://www.w3.org/2000/svg"
	xmlns:xlink="http://www.w3.org/1999/xlink" x="0px" y="0px" width="137.012px" height="107.652px" viewBox="0 0 137.012 107.652" enable-background="new 0 0 137.012 107.652" xml:space="preserve">
	<g>
		<defs>
			<rect id="SVGID_1_" width="137.012" height="107.652"/>
		</defs>
		<clipPath id="SVGID_2_">
			<use xlink:href="#SVGID_1_" overflow="visible"/>
		</clipPath>
		<path clip-path="url(#SVGID_2_)" fill="#FFF" d="M137.012,68.506C137.012,30.736,106.275,0,68.505,0C30.736,0,0,30.736,0,68.506
		c0,13.151,3.747,25.919,10.781,36.93c0.917,1.376,2.446,2.217,4.129,2.217h107.193c1.683,0,3.211-0.841,4.128-2.217
		C133.266,94.35,137.012,81.657,137.012,68.506 M112.545,34.253c0,5.43-4.358,9.787-9.786,9.787c-5.429,0-9.786-4.357-9.786-9.787
		c0-5.428,4.357-9.786,9.786-9.786C108.187,24.467,112.545,28.825,112.545,34.253 M78.293,19.573c0,5.429-4.358,9.787-9.788,9.787
		c-5.428,0-9.786-4.358-9.786-9.787c0-5.428,4.358-9.786,9.786-9.786C73.935,9.787,78.293,14.146,78.293,19.573 M127.225,68.506
		c0,5.429-4.357,9.787-9.786,9.787s-9.787-4.358-9.787-9.787c0-5.428,4.358-9.786,9.787-9.786S127.225,63.078,127.225,68.506
		 M76.764,71.029c4.969,3.441,7.568,9.71,5.963,15.903c-2.064,7.799-10.092,12.539-17.967,10.475
		c-7.799-2.064-12.539-10.092-10.475-17.968c1.682-6.193,6.958-10.398,12.998-10.857l7.721-29.206
		c0.688-2.6,3.365-4.205,5.965-3.517c2.599,0.688,4.128,3.364,3.517,5.963L76.764,71.029z M44.04,34.253
		c0,5.43-4.358,9.787-9.787,9.787c-5.428,0-9.786-4.357-9.786-9.787c0-5.428,4.358-9.786,9.786-9.786
		C39.682,24.467,44.04,28.825,44.04,34.253 M29.359,68.506c0,5.429-4.358,9.787-9.787,9.787c-5.428,0-9.786-4.358-9.786-9.787
		c0-5.428,4.358-9.786,9.786-9.786C25.001,58.72,29.359,63.078,29.359,68.506"/>
	</g>
	<g>
	</g>
	<g>
	</g>
	<g>
	</g>
	<g>
	</g>
	<g>
	</g>
	<g>
	</g>
	<g>
	</g>
	<g>
	</g>
	<g>
	</g>
	<g>
	</g>
	<g>
	</g>
	<g>
	</g>
	<g>
	</g>
	<g>
	</g>
	<g>
	</g>
</svg>
