<?xml version="1.0" encoding="utf-8"?>
<!-- Generator: Adobe Illustrator 16.0.4, SVG Export Plug-In . SVG Version: 6.00 Build 0)  -->
<!DOCTYPE svg PUBLIC "-//W3C//DTD SVG 1.1//EN" "http://www.w3.org/Graphics/SVG/1.1/DTD/svg11.dtd">
<svg version="1.1" id="Ebene_1" xmlns="http://www.w3.org/2000/svg" xmlns:xlink="http://www.w3.org/1999/xlink" x="0px" y="0px"
	 width="75.062px" height="74.631px" viewBox="0 0 75.062 74.631" enable-background="new 0 0 75.062 74.631" xml:space="preserve">
<g>
	<defs>
		<rect id="SVGID_1_" width="75.062" height="74.631"/>
	</defs>
	<clipPath id="SVGID_2_">
		<use xlink:href="#SVGID_1_"  overflow="visible"/>
	</clipPath>
	<path clip-path="url(#SVGID_2_)" fill="#FFFFFF" d="M54.184,22.08v3.34c0,0.794-0.645,1.438-1.438,1.438s-1.438-0.644-1.438-1.438
		v-3.455c0-1.288,0.882-2.385,2.145-2.667c1.559-0.35,2.607-1.765,2.498-3.366c-0.109-1.585-1.388-2.863-2.973-2.973
		c-0.905-0.062-1.766,0.241-2.422,0.855c-0.659,0.614-1.021,1.448-1.021,2.349c0,0.794-0.645,1.438-1.438,1.438
		c-0.795,0-1.438-0.644-1.438-1.438c0-1.682,0.705-3.304,1.935-4.451c1.246-1.164,2.875-1.739,4.582-1.622
		c3.01,0.207,5.437,2.634,5.645,5.645C59.024,18.729,57.08,21.38,54.184,22.08 M53.762,32.126c-0.268,0.267-0.639,0.42-1.017,0.42
		s-0.749-0.153-1.017-0.42c-0.268-0.269-0.422-0.64-0.422-1.019c0-0.378,0.154-0.749,0.422-1.017s0.639-0.421,1.017-0.421
		s0.749,0.153,1.017,0.421s0.422,0.639,0.422,1.017C54.184,31.486,54.029,31.856,53.762,32.126 M54.162,0h-3.639
		C38.998,0,29.622,9.376,29.622,20.899c0,11.525,9.376,20.901,20.9,20.901h3.64c1.799,0,3.579-0.229,5.305-0.68l5.377,5.373
		c0.274,0.274,0.642,0.421,1.017,0.421c0.185,0,0.372-0.036,0.55-0.11c0.537-0.222,0.887-0.747,0.887-1.328v-8.32
		c2.276-1.843,4.168-4.172,5.494-6.772c1.508-2.954,2.271-6.146,2.271-9.484C75.062,9.376,65.687,0,54.162,0"/>
	<path clip-path="url(#SVGID_2_)" fill="#FFFFFF" d="M39.545,48.46H9.204c-0.794,0-1.438-0.645-1.438-1.438s0.644-1.438,1.438-1.438
		h30.341c0.793,0,1.438,0.644,1.438,1.438S40.338,48.46,39.545,48.46 M40.562,56.091c-0.269,0.268-0.64,0.421-1.017,0.421
		c-0.379,0-0.75-0.153-1.018-0.421c-0.268-0.267-0.421-0.638-0.421-1.017c0-0.378,0.153-0.749,0.421-1.017s0.639-0.422,1.018-0.422
		c0.377,0,0.748,0.154,1.017,0.422c0.267,0.268,0.421,0.639,0.421,1.017C40.982,55.454,40.828,55.824,40.562,56.091 M33.888,56.512
		H9.204c-0.794,0-1.438-0.643-1.438-1.438c0-0.794,0.644-1.438,1.438-1.438h24.685c0.794,0,1.438,0.645,1.438,1.438
		C35.326,55.869,34.683,56.512,33.888,56.512 M9.204,37.531h20.994c0.794,0,1.438,0.644,1.438,1.438s-0.644,1.438-1.438,1.438H9.204
		c-0.794,0-1.438-0.645-1.438-1.438S8.409,37.531,9.204,37.531 M49.453,44.444c-10.898,0-19.964-7.988-21.652-18.417H10.065
		C4.516,26.027,0,30.543,0,36.093v22.146c0,5.55,4.515,10.065,10.065,10.065h8.608l5.906,5.906c0.275,0.274,0.643,0.421,1.017,0.421
		c0.185,0,0.372-0.036,0.549-0.109c0.538-0.223,0.888-0.747,0.889-1.327l0.003-4.891h14.089c5.549,0,10.065-4.516,10.065-10.065
		V44.444H49.453z"/>
</g>
<g>
</g>
<g>
</g>
<g>
</g>
<g>
</g>
<g>
</g>
<g>
</g>
<g>
</g>
<g>
</g>
<g>
</g>
<g>
</g>
<g>
</g>
<g>
</g>
<g>
</g>
<g>
</g>
<g>
</g>
</svg>
