<?xml version="1.0" encoding="utf-8"?>
<!-- Generator: Adobe Illustrator 16.0.4, SVG Export Plug-In . SVG Version: 6.00 Build 0)  -->
<!DOCTYPE svg PUBLIC "-//W3C//DTD SVG 1.1//EN" "http://www.w3.org/Graphics/SVG/1.1/DTD/svg11.dtd">
<svg version="1.1" id="Ebene_1" xmlns="http://www.w3.org/2000/svg" xmlns:xlink="http://www.w3.org/1999/xlink" x="0px" y="0px"
	 width="62.562px" height="49.156px" viewBox="0 0 62.562 49.156" enable-background="new 0 0 62.562 49.156" xml:space="preserve">
<path fill="#FFFFFF" d="M57.64,48.145c-0.419,0.628-1.117,1.012-1.885,1.012H6.808c-0.768,0-1.466-0.384-1.885-1.012
	C1.711,43.117,0,37.286,0,31.281C0,14.035,14.035,0,31.281,0c17.246,0,31.281,14.035,31.281,31.281
	C62.562,37.286,60.852,43.082,57.64,48.145z M8.938,26.812c-2.479,0-4.469,1.99-4.469,4.469c0,2.479,1.99,4.469,4.469,4.469
	s4.469-1.989,4.469-4.469C13.406,28.803,11.416,26.812,8.938,26.812z M15.641,11.172c-2.479,0-4.469,1.99-4.469,4.469
	c0,2.479,1.99,4.469,4.469,4.469s4.469-1.989,4.469-4.469C20.109,13.162,18.119,11.172,15.641,11.172z M38.578,19.098
	c0.279-1.188-0.419-2.409-1.606-2.724l0,0c-1.187-0.314-2.409,0.419-2.723,1.606l-3.526,13.336c-2.758,0.21-5.167,2.13-5.935,4.958
	c-0.943,3.596,1.222,7.262,4.783,8.204c3.596,0.942,7.262-1.222,8.205-4.783c0.732-2.828-0.454-5.69-2.724-7.262L38.578,19.098z
	 M31.281,4.469c-2.479,0-4.469,1.99-4.469,4.469c0,2.479,1.99,4.469,4.469,4.469s4.469-1.989,4.469-4.469
	C35.75,6.459,33.76,4.469,31.281,4.469z M46.922,11.172c-2.479,0-4.469,1.99-4.469,4.469c0,2.479,1.99,4.469,4.469,4.469
	s4.469-1.989,4.469-4.469C51.391,13.162,49.4,11.172,46.922,11.172z M53.625,26.812c-2.479,0-4.469,1.99-4.469,4.469
	c0,2.479,1.99,4.469,4.469,4.469s4.469-1.989,4.469-4.469C58.094,28.803,56.104,26.812,53.625,26.812z"/>
<g>
</g>
<g>
</g>
<g>
</g>
<g>
</g>
<g>
</g>
<g>
</g>
<g>
</g>
<g>
</g>
<g>
</g>
<g>
</g>
<g>
</g>
<g>
</g>
<g>
</g>
<g>
</g>
<g>
</g>
</svg>
