<?xml version="1.0" encoding="utf-8"?>
<!-- Generator: Adobe Illustrator 16.0.4, SVG Export Plug-In . SVG Version: 6.00 Build 0)  -->
<!DOCTYPE svg PUBLIC "-//W3C//DTD SVG 1.1//EN" "http://www.w3.org/Graphics/SVG/1.1/DTD/svg11.dtd">
<svg version="1.1" id="Ebene_1" xmlns="http://www.w3.org/2000/svg" xmlns:xlink="http://www.w3.org/1999/xlink" x="0px" y="0px"
	 width="22.244px" height="42.193px" viewBox="0 0 22.244 42.193" enable-background="new 0 0 22.244 42.193" xml:space="preserve">
<g>
	<defs>
		<rect id="SVGID_1_" width="22.244" height="42.193"/>
	</defs>
	<clipPath id="SVGID_2_">
		<use xlink:href="#SVGID_1_"  overflow="visible"/>
	</clipPath>
	<path clip-path="url(#SVGID_2_)" fill="#FFFFFF" d="M0.78,35.987c-0.696,1.188-0.656,2.656,0.539,3.537
		c1.018,0.753,2.839,0.657,3.541-0.533c1.442-2.466,4.062-4.32,4.062-4.32S7.956,32.546,7.5,28.562
		C7.5,28.565,2.428,33.181,0.78,35.987"/>
	<path clip-path="url(#SVGID_2_)" fill="#FFFFFF" d="M21.428,17.698c-2.967-2.642-6.146-5.007-9.624-6.914
		c-0.375-0.281-0.806-0.504-1.259-0.652c-0.298-0.123-0.596-0.182-0.881-0.188c-0.478-0.058-0.957-0.031-1.394,0.087
		C7.112,10.34,6.33,11.048,5.884,11.95c-2.143,2.502-3.934,5.225-5.54,8.099c-1.594,2.855,2.778,5.406,4.373,2.556
		c0.496-0.891,1.012-1.773,1.545-2.634c0.465,3.115,0.629,3.35,1.093,6.466c0.092,0.629,0.392,1.174,0.812,1.614
		c0.671,4.441,1.906,8.816,3.85,12.845c1.416,2.937,5.781,0.369,4.371-2.556c-1.453-3.008-2.426-6.342-3.022-9.699
		c1.312-0.916,1.791-2.564,1.544-4.231c-0.457-3.078-0.613-3.27-1.074-6.348c1.383,0.997,2.719,2.069,4.01,3.215
		C20.278,23.438,23.871,19.871,21.428,17.698"/>
	<path clip-path="url(#SVGID_2_)" fill="#FFFFFF" d="M13.695,4.41c0,2.436-1.977,4.412-4.414,4.412
		c-2.436,0-4.409-1.977-4.409-4.412c0-2.433,1.973-4.409,4.409-4.409C11.718,0.001,13.695,1.978,13.695,4.41"/>
</g>
<g>
</g>
<g>
</g>
<g>
</g>
<g>
</g>
<g>
</g>
<g>
</g>
<g>
</g>
<g>
</g>
<g>
</g>
<g>
</g>
<g>
</g>
<g>
</g>
<g>
</g>
<g>
</g>
<g>
</g>
</svg>
