<?xml version="1.0" encoding="utf-8"?>
<!-- Generator: Adobe Illustrator 16.0.4, SVG Export Plug-In . SVG Version: 6.00 Build 0)  -->
<!DOCTYPE svg PUBLIC "-//W3C//DTD SVG 1.1//EN" "http://www.w3.org/Graphics/SVG/1.1/DTD/svg11.dtd">
<svg version="1.1" id="Ebene_1" xmlns="http://www.w3.org/2000/svg" xmlns:xlink="http://www.w3.org/1999/xlink" x="0px" y="0px"
	 width="73.087px" height="73.088px" viewBox="0 0 73.087 73.088" enable-background="new 0 0 73.087 73.088" xml:space="preserve">
<path fill="#B70F75" d="M71.078,14.868L13.662,72.284c-0.536,0.536-1.25,0.804-2.009,0.804s-1.473-0.268-2.009-0.804l-8.84-8.84
	C0.268,62.908,0,62.193,0,61.435s0.268-1.473,0.804-2.009L58.22,2.01c0.535-0.536,1.25-0.804,2.009-0.804s1.474,0.268,2.009,0.804
	l8.84,8.84c0.537,0.536,0.805,1.25,0.805,2.009S71.615,14.332,71.078,14.868z M15.939,5.715l-4.375,1.34l-1.339,4.375L8.885,7.055
	l-4.375-1.34l4.375-1.339L10.224,0l1.339,4.376L15.939,5.715z M35.941,14.287l-8.751,2.679l-2.679,8.751l-2.679-8.751l-8.751-2.679
	l8.751-2.679l2.679-8.751l2.679,8.751L35.941,14.287z M44.513,5.715l-4.375,1.34l-1.34,4.375l-1.339-4.375l-4.375-1.34l4.375-1.339
	L38.798,0l1.34,4.376L44.513,5.715z M65.006,12.858l-4.777-4.777L47.148,21.163l4.777,4.777L65.006,12.858z M73.087,34.289
	l-4.375,1.34l-1.34,4.375l-1.34-4.375l-4.375-1.34l4.375-1.339l1.34-4.376l1.34,4.376L73.087,34.289z"/>
<g>
</g>
<g>
</g>
<g>
</g>
<g>
</g>
<g>
</g>
<g>
</g>
<g>
</g>
<g>
</g>
<g>
</g>
<g>
</g>
<g>
</g>
<g>
</g>
<g>
</g>
<g>
</g>
<g>
</g>
</svg>
