<?xml version="1.0" encoding="utf-8"?>
<!-- Generator: Adobe Illustrator 16.0.4, SVG Export Plug-In . SVG Version: 6.00 Build 0)  -->
<!DOCTYPE svg PUBLIC "-//W3C//DTD SVG 1.1//EN" "http://www.w3.org/Graphics/SVG/1.1/DTD/svg11.dtd">
<svg version="1.1" id="DE_Download_on_the" xmlns="http://www.w3.org/2000/svg" xmlns:xlink="http://www.w3.org/1999/xlink" x="0px"
	 y="0px" width="175px" height="52px" viewBox="0 0 175 52" enable-background="new 0 0 175 52" xml:space="preserve">
<g>
	<path fill="#A6A6A6" d="M169.007,52H5.897C2.508,52,0,49.233,0,45.847V6.143C0,2.756,2.508,0,5.897,0h163.109
		C172.394,0,175,2.756,175,6.143v39.704c0,3.387-2.731,6.153-6.118,6.153H169.007z"/>
	<path d="M173.992,45.848c0,2.751-2.229,4.979-4.984,4.979H5.897c-2.755,0-4.99-2.229-4.99-4.979V6.143
		c0-2.75,2.235-4.985,4.99-4.985h163.109c2.757,0,4.983,2.235,4.983,4.985v39.705H173.992z"/>
	<g>
		<g>
			<path fill="#FFFFFF" d="M38.917,25.718c-0.038-4.189,3.43-6.229,3.589-6.324c-1.964-2.864-5.009-3.256-6.078-3.286
				c-2.558-0.269-5.037,1.53-6.34,1.53c-1.329,0-3.335-1.503-5.496-1.459c-2.782,0.043-5.385,1.653-6.812,4.154
				c-2.945,5.1-0.749,12.594,2.073,16.717c1.412,2.02,3.062,4.273,5.22,4.192c2.113-0.086,2.901-1.346,5.452-1.346
				c2.526,0,3.266,1.346,5.469,1.295c2.267-0.035,3.695-2.026,5.057-4.065c1.632-2.312,2.287-4.593,2.312-4.709
				C43.311,32.399,38.961,30.741,38.917,25.718z"/>
			<path fill="#FFFFFF" d="M34.757,13.397c1.136-1.421,1.913-3.354,1.697-5.316c-1.645,0.073-3.701,1.137-4.885,2.528
				c-1.047,1.225-1.983,3.232-1.742,5.119C31.675,15.865,33.572,14.796,34.757,13.397z"/>
		</g>
	</g>
	<g>
		<path fill="#FFFFFF" d="M69.536,40.952h-2.952l-1.618-5.08h-5.621l-1.541,5.08h-2.875L60.5,23.653h3.44L69.536,40.952z
			 M64.479,33.74l-1.463-4.517c-0.154-0.463-0.445-1.549-0.873-3.26h-0.051c-0.171,0.736-0.445,1.822-0.822,3.26l-1.437,4.517
			H64.479z"/>
		<path fill="#FFFFFF" d="M83.858,34.562c0,2.123-0.573,3.799-1.72,5.03c-1.027,1.097-2.302,1.643-3.825,1.643
			c-1.643,0-2.823-0.589-3.542-1.77H74.72v6.571h-2.772v-13.45c0-1.335-0.035-2.704-0.103-4.107h2.438l0.154,1.978h0.051
			c0.924-1.49,2.327-2.234,4.209-2.234c1.472,0,2.7,0.581,3.684,1.745C83.366,31.132,83.858,32.662,83.858,34.562z M81.034,34.664
			c0-1.215-0.273-2.215-0.821-3.002C79.614,30.84,78.81,30.43,77.8,30.43c-0.685,0-1.305,0.227-1.861,0.68
			c-0.557,0.454-0.92,1.048-1.091,1.784c-0.086,0.343-0.128,0.625-0.128,0.847v2.08c0,0.907,0.278,1.672,0.834,2.296
			c0.556,0.625,1.279,0.938,2.169,0.938c1.044,0,1.857-0.401,2.438-1.206C80.743,37.042,81.034,35.982,81.034,34.664z"/>
		<path fill="#FFFFFF" d="M98.207,34.562c0,2.123-0.573,3.799-1.722,5.03c-1.025,1.097-2.3,1.643-3.823,1.643
			c-1.643,0-2.823-0.589-3.543-1.77h-0.051v6.571h-2.772v-13.45c0-1.335-0.035-2.704-0.103-4.107h2.438l0.154,1.978h0.051
			c0.925-1.49,2.327-2.234,4.21-2.234c1.47,0,2.699,0.581,3.685,1.745C97.715,31.132,98.207,32.662,98.207,34.562z M95.384,34.664
			c0-1.215-0.274-2.215-0.822-3.002c-0.6-0.822-1.402-1.232-2.412-1.232c-0.686,0-1.306,0.227-1.861,0.68
			c-0.557,0.454-0.92,1.048-1.092,1.784c-0.085,0.343-0.128,0.625-0.128,0.847v2.08c0,0.907,0.278,1.672,0.834,2.296
			c0.556,0.625,1.279,0.938,2.171,0.938c1.043,0,1.855-0.401,2.438-1.206C95.092,37.042,95.384,35.982,95.384,34.664z"/>
		<path fill="#FFFFFF" d="M114.249,36.103c0,1.471-0.513,2.669-1.536,3.593c-1.127,1.011-2.699,1.514-4.713,1.514
			c-1.86,0-3.356-0.358-4.483-1.076l0.643-2.311c1.213,0.736,2.549,1.104,4.004,1.104c1.046,0,1.858-0.236,2.439-0.709
			c0.582-0.47,0.874-1.102,0.874-1.889c0-0.703-0.241-1.295-0.719-1.775c-0.479-0.479-1.274-0.924-2.387-1.337
			c-3.029-1.131-4.545-2.783-4.545-4.961c0-1.422,0.53-2.588,1.592-3.497c1.062-0.908,2.474-1.363,4.235-1.363
			c1.574,0,2.885,0.274,3.928,0.822l-0.693,2.259c-0.975-0.53-2.079-0.796-3.311-0.796c-0.975,0-1.736,0.24-2.285,0.719
			c-0.462,0.428-0.693,0.95-0.693,1.565c0,0.686,0.267,1.25,0.798,1.694c0.462,0.411,1.3,0.855,2.514,1.335
			c1.49,0.6,2.584,1.3,3.285,2.105C113.898,33.904,114.249,34.904,114.249,36.103z"/>
		<path fill="#FFFFFF" d="M123.41,30.558h-3.055v6.059c0,1.538,0.541,2.311,1.617,2.311c0.498,0,0.906-0.044,1.234-0.13l0.076,2.104
			c-0.549,0.206-1.268,0.308-2.156,0.308c-1.097,0-1.952-0.333-2.566-1c-0.617-0.668-0.925-1.788-0.925-3.362v-6.289h-1.822v-2.079
			h1.822v-2.284l2.72-0.821v3.105h3.055V30.558z"/>
		<path fill="#FFFFFF" d="M137.194,34.612c0,1.917-0.548,3.491-1.643,4.723c-1.146,1.268-2.669,1.899-4.567,1.899
			c-1.834,0-3.291-0.606-4.378-1.82c-1.087-1.217-1.63-2.747-1.63-4.596c0-1.933,0.562-3.517,1.681-4.748
			c1.122-1.231,2.633-1.849,4.532-1.849c1.831,0,3.301,0.608,4.413,1.823C136.664,31.226,137.194,32.749,137.194,34.612z
			 M134.32,34.704c0-1.15-0.249-2.138-0.744-2.961c-0.581-0.995-1.411-1.493-2.49-1.493c-1.112,0-1.961,0.498-2.542,1.493
			c-0.495,0.823-0.744,1.827-0.744,3.012c0,1.15,0.249,2.138,0.744,2.96c0.6,0.996,1.438,1.493,2.517,1.493
			c1.061,0,1.892-0.508,2.49-1.519C134.063,36.85,134.32,35.853,134.32,34.704z"/>
		<path fill="#FFFFFF" d="M146.203,30.917c-0.274-0.052-0.563-0.077-0.871-0.077c-0.978,0-1.729,0.368-2.26,1.104
			c-0.462,0.649-0.693,1.473-0.693,2.464v6.544h-2.772l0.025-8.546c0-1.438-0.033-2.747-0.102-3.928h2.412l0.104,2.387h0.076
			c0.289-0.82,0.751-1.479,1.386-1.976c0.615-0.444,1.282-0.668,2.001-0.668c0.257,0,0.487,0.018,0.693,0.051V30.917z"/>
		<path fill="#FFFFFF" d="M158.602,34.125c0,0.498-0.036,0.917-0.104,1.258h-8.315c0.033,1.233,0.437,2.175,1.206,2.825
			c0.701,0.581,1.61,0.871,2.722,0.871c1.231,0,2.352-0.196,3.362-0.59l0.437,1.925c-1.181,0.513-2.577,0.77-4.185,0.77
			c-1.935,0-3.453-0.568-4.555-1.706c-1.104-1.138-1.655-2.666-1.655-4.582c0-1.883,0.513-3.448,1.538-4.697
			c1.079-1.334,2.534-2.002,4.365-2.002c1.795,0,3.155,0.668,4.08,2.002C158.233,31.26,158.602,32.568,158.602,34.125z
			 M155.958,33.406c0.016-0.82-0.165-1.531-0.541-2.13c-0.477-0.77-1.213-1.155-2.206-1.155c-0.906,0-1.643,0.377-2.206,1.13
			c-0.463,0.599-0.736,1.317-0.823,2.155H155.958z"/>
	</g>
	<g>
		<g>
			<path fill="#FFFFFF" d="M61.405,17.461h-4.829V8.962h1.362v7.351h3.467V17.461z"/>
			<path fill="#FFFFFF" d="M67.824,17.461h-1.224L66.5,16.755h-0.038c-0.42,0.563-1.017,0.845-1.79,0.845
				c-0.58,0-1.047-0.185-1.4-0.555c-0.32-0.336-0.479-0.752-0.479-1.248c0-0.749,0.312-1.32,0.939-1.715
				c0.626-0.395,1.507-0.588,2.642-0.58v-0.114c0-0.807-0.424-1.21-1.271-1.21c-0.604,0-1.138,0.152-1.598,0.454l-0.277-0.895
				c0.57-0.353,1.272-0.529,2.103-0.529c1.603,0,2.404,0.845,2.404,2.534v2.257C67.735,16.612,67.766,17.1,67.824,17.461z
				 M66.411,15.355V14.41c-1.504-0.025-2.256,0.387-2.256,1.235c0,0.32,0.087,0.559,0.263,0.719
				c0.175,0.159,0.397,0.239,0.664,0.239c0.301,0,0.579-0.095,0.834-0.284c0.255-0.189,0.413-0.43,0.471-0.725
				C66.403,15.528,66.411,15.448,66.411,15.355z"/>
			<path fill="#FFFFFF" d="M75.566,17.461h-1.21l-0.063-0.984h-0.038c-0.386,0.749-1.042,1.123-1.966,1.123
				c-0.74,0-1.354-0.29-1.841-0.87c-0.488-0.58-0.731-1.333-0.731-2.257c0-0.992,0.264-1.795,0.793-2.408
				c0.513-0.572,1.144-0.857,1.892-0.857c0.824,0,1.4,0.277,1.728,0.832h0.025V8.521h1.362v7.289
				C75.516,16.406,75.533,16.957,75.566,17.461z M74.154,14.876v-1.022c0-0.177-0.013-0.319-0.038-0.429
				c-0.076-0.328-0.241-0.603-0.494-0.826c-0.254-0.223-0.557-0.334-0.912-0.334c-0.506,0-0.905,0.202-1.197,0.605
				c-0.291,0.404-0.437,0.92-0.437,1.551c0,0.605,0.14,1.098,0.419,1.476c0.294,0.403,0.692,0.605,1.189,0.605
				c0.447,0,0.806-0.168,1.077-0.504C74.023,15.688,74.154,15.313,74.154,14.876z"/>
			<path fill="#FFFFFF" d="M82.982,14.107c0,0.244-0.018,0.45-0.051,0.618h-4.085c0.017,0.605,0.213,1.068,0.592,1.387
				c0.345,0.286,0.791,0.429,1.336,0.429c0.606,0,1.157-0.096,1.653-0.29l0.213,0.946c-0.58,0.252-1.264,0.378-2.055,0.378
				c-0.95,0-1.696-0.279-2.238-0.838c-0.542-0.56-0.812-1.31-0.812-2.251c0-0.925,0.251-1.694,0.757-2.308
				c0.529-0.656,1.243-0.983,2.143-0.983c0.882,0,1.551,0.327,2.004,0.983C82.801,12.699,82.982,13.342,82.982,14.107z
				 M81.683,13.754c0.009-0.403-0.08-0.752-0.264-1.046c-0.236-0.378-0.597-0.568-1.084-0.568c-0.445,0-0.807,0.185-1.085,0.555
				c-0.226,0.294-0.36,0.647-0.402,1.059H81.683z"/>
			<path fill="#FFFFFF" d="M90.283,17.461H88.92v-3.509c0-1.082-0.411-1.623-1.235-1.623c-0.403,0-0.731,0.148-0.984,0.446
				c-0.251,0.297-0.378,0.648-0.378,1.05v3.635H84.96v-4.375c0-0.538-0.017-1.122-0.05-1.753h1.197l0.063,0.958h0.038
				c0.159-0.297,0.395-0.544,0.706-0.74c0.369-0.229,0.782-0.344,1.235-0.344c0.573,0,1.048,0.185,1.427,0.555
				c0.47,0.454,0.706,1.13,0.706,2.03V17.461z"/>
			<path fill="#FFFFFF" d="M97.872,9.504c0,0.244-0.079,0.441-0.238,0.592c-0.16,0.151-0.366,0.227-0.617,0.227
				c-0.229,0-0.419-0.077-0.574-0.233c-0.157-0.155-0.233-0.351-0.233-0.586s0.079-0.429,0.238-0.58
				c0.16-0.151,0.358-0.228,0.595-0.228c0.233,0,0.432,0.076,0.592,0.228C97.793,9.075,97.872,9.269,97.872,9.504z M97.723,17.461
				h-1.364v-6.128h1.364V17.461z"/>
			<path fill="#FFFFFF" d="M108.92,17.461h-1.336v-3.434c0-1.132-0.389-1.698-1.16-1.698c-0.371,0-0.668,0.14-0.889,0.421
				c-0.224,0.281-0.335,0.61-0.335,0.987v3.723h-1.336v-3.61c0-0.461-0.097-0.83-0.284-1.107c-0.19-0.277-0.47-0.415-0.838-0.415
				c-0.371,0-0.673,0.151-0.909,0.453c-0.236,0.302-0.353,0.646-0.353,1.031v3.648h-1.339v-4.375c0-0.538-0.015-1.122-0.048-1.753
				h1.171l0.063,0.933h0.038c0.421-0.706,1.043-1.058,1.866-1.058c0.832,0,1.396,0.382,1.69,1.147h0.025
				c0.193-0.319,0.432-0.576,0.719-0.769c0.36-0.252,0.777-0.378,1.247-0.378c0.548,0,0.997,0.185,1.351,0.555
				c0.437,0.462,0.655,1.151,0.655,2.068V17.461z"/>
		</g>
	</g>
</g>
<g>
</g>
<g>
</g>
<g>
</g>
<g>
</g>
<g>
</g>
<g>
</g>
</svg>
