<?xml version="1.0" encoding="utf-8"?>
<!-- Generator: Adobe Illustrator 16.0.4, SVG Export Plug-In . SVG Version: 6.00 Build 0)  -->
<!DOCTYPE svg PUBLIC "-//W3C//DTD SVG 1.1//EN" "http://www.w3.org/Graphics/SVG/1.1/DTD/svg11.dtd">
<svg version="1.1" id="artwork" xmlns="http://www.w3.org/2000/svg" xmlns:xlink="http://www.w3.org/1999/xlink" x="0px" y="0px"
	 width="175.5px" height="52px" viewBox="0 0 175.5 52" enable-background="new 0 0 175.5 52" xml:space="preserve">
<g>
	<g>
		<path fill="#0F0E09" d="M169,52H6.5C2.925,52,0,49.075,0,45.5v-39C0,2.925,2.925,0,6.5,0H169c3.575,0,6.5,2.925,6.5,6.5v39
			C175.5,49.075,172.575,52,169,52z"/>
	</g>
	<g>
		<g>
			<path fill="#B0ADAB" d="M169,1.04c3.012,0,5.46,2.45,5.46,5.46v39c0,3.011-2.448,5.46-5.46,5.46H6.5
				c-3.011,0-5.459-2.45-5.459-5.46v-39c0-3.011,2.449-5.46,5.459-5.46H169 M169,0H6.5C2.925,0,0,2.925,0,6.5v39
				C0,49.075,2.925,52,6.5,52H169c3.575,0,6.5-2.925,6.5-6.5v-39C175.5,2.925,172.575,0,169,0L169,0z"/>
		</g>
	</g>
	<path fill="#FFFFFF" d="M88.576,28.277c-3.058,0-5.549,2.325-5.549,5.529c0,3.184,2.492,5.529,5.549,5.529
		c3.059,0,5.551-2.345,5.551-5.529C94.127,30.602,91.635,28.277,88.576,28.277z M88.576,37.157c-1.675,0-3.12-1.382-3.12-3.351
		c0-1.99,1.445-3.351,3.12-3.351c1.676,0,3.121,1.361,3.121,3.351C91.697,35.775,90.252,37.157,88.576,37.157z M76.469,28.277
		c-3.058,0-5.55,2.325-5.55,5.529c0,3.184,2.492,5.529,5.55,5.529c3.059,0,5.551-2.345,5.551-5.529
		C82.02,30.602,79.527,28.277,76.469,28.277z M76.469,37.157c-1.675,0-3.12-1.382-3.12-3.351c0-1.99,1.445-3.351,3.12-3.351
		c1.676,0,3.121,1.361,3.121,3.351C79.589,35.775,78.145,37.157,76.469,37.157z M62.067,29.974v2.346h5.613
		c-0.168,1.319-0.608,2.282-1.278,2.953c-0.817,0.817-2.095,1.718-4.335,1.718c-3.456,0-6.157-2.786-6.157-6.241
		s2.701-6.242,6.157-6.242c1.864,0,3.225,0.733,4.23,1.676l1.655-1.655c-1.403-1.34-3.267-2.366-5.885-2.366
		c-4.733,0-8.713,3.854-8.713,8.587c0,4.733,3.979,8.586,8.713,8.586c2.555,0,4.482-0.838,5.99-2.408
		c1.55-1.55,2.032-3.728,2.032-5.487c0-0.544-0.042-1.047-0.126-1.466H62.067z M120.967,31.795c-0.46-1.235-1.863-3.519-4.732-3.519
		c-2.849,0-5.215,2.241-5.215,5.529c0,3.1,2.346,5.529,5.486,5.529c2.534,0,4.001-1.549,4.608-2.45l-1.885-1.257
		c-0.629,0.922-1.487,1.529-2.724,1.529c-1.235,0-2.115-0.565-2.68-1.676l7.393-3.058L120.967,31.795z M113.428,33.639
		c-0.062-2.137,1.655-3.225,2.891-3.225c0.964,0,1.779,0.482,2.053,1.172L113.428,33.639z M107.418,39h2.428V22.748h-2.428V39z
		 M103.438,29.513h-0.084c-0.544-0.649-1.592-1.236-2.911-1.236c-2.765,0-5.299,2.43-5.299,5.55c0,3.1,2.534,5.508,5.299,5.508
		c1.319,0,2.367-0.586,2.911-1.256h0.084v0.795c0,2.116-1.131,3.246-2.953,3.246c-1.486,0-2.408-1.068-2.785-1.968l-2.115,0.879
		c0.607,1.466,2.22,3.267,4.9,3.267c2.85,0,5.258-1.676,5.258-5.76v-9.927h-2.305V29.513z M100.652,37.157
		c-1.676,0-3.079-1.403-3.079-3.33c0-1.948,1.403-3.372,3.079-3.372c1.654,0,2.953,1.424,2.953,3.372
		C103.605,35.754,102.307,37.157,100.652,37.157z M132.348,22.748h-5.812V39h2.425v-6.157h3.388c2.688,0,5.332-1.946,5.332-5.047
		C137.68,24.695,135.036,22.748,132.348,22.748z M132.411,30.581h-3.451V25.01h3.451c1.812,0,2.842,1.501,2.842,2.786
		C135.253,29.055,134.224,30.581,132.411,30.581z M147.401,28.247c-1.756,0-3.575,0.774-4.328,2.488l2.153,0.899
		c0.46-0.899,1.318-1.191,2.217-1.191c1.254,0,2.53,0.752,2.551,2.09v0.167c-0.439-0.251-1.38-0.627-2.53-0.627
		c-2.321,0-4.684,1.275-4.684,3.659c0,2.174,1.903,3.575,4.036,3.575c1.63,0,2.53-0.731,3.094-1.589h0.084v1.255h2.342v-6.23
		C152.336,29.857,150.182,28.247,147.401,28.247z M147.108,37.154c-0.794,0-1.902-0.397-1.902-1.38c0-1.254,1.38-1.735,2.572-1.735
		c1.065,0,1.568,0.23,2.216,0.543C149.806,36.088,148.51,37.154,147.108,37.154z M160.866,28.603l-2.78,7.046h-0.084l-2.886-7.046
		h-2.612l4.328,9.848l-2.469,5.478h2.53l6.67-15.326H160.866z M139.018,39h2.425V22.748h-2.425V39z"/>
	<g>
		<g>
			<g>
				<path fill="#6FC9F3" d="M13.565,9.812c-0.377,0.4-0.601,1.02-0.601,1.825v28.727c0,0.805,0.224,1.425,0.601,1.825l0.096,0.094
					L29.754,26.19V26v-0.19L13.662,9.718L13.565,9.812z"/>
				<linearGradient id="SVGID_1_" gradientUnits="userSpaceOnUse" x1="40.4155" y1="26.0005" x2="8.9859" y2="26.0005">
					<stop  offset="0" style="stop-color:#FFE000"/>
					<stop  offset="0.1941" style="stop-color:#FDD000"/>
					<stop  offset="0.5469" style="stop-color:#F9B400"/>
					<stop  offset="0.8279" style="stop-color:#F6A100"/>
					<stop  offset="1" style="stop-color:#F59A00"/>
				</linearGradient>
				<path fill="url(#SVGID_1_)" d="M35.117,31.556l-5.363-5.366V26v-0.19l5.365-5.366l0.121,0.069l6.355,3.611
					c1.815,1.031,1.815,2.719,0,3.75l-6.355,3.611L35.117,31.556z"/>
				<linearGradient id="SVGID_2_" gradientUnits="userSpaceOnUse" x1="32.2593" y1="28.981" x2="2.6976" y2="58.5426">
					<stop  offset="0" style="stop-color:#E7373C"/>
					<stop  offset="1" style="stop-color:#C70E66"/>
				</linearGradient>
				<path fill="url(#SVGID_2_)" d="M35.24,31.486L29.754,26L13.565,42.188c0.599,0.633,1.586,0.711,2.7,0.079L35.24,31.486"/>
				<linearGradient id="SVGID_3_" gradientUnits="userSpaceOnUse" x1="2.5664" y1="-6.6738" x2="26.7026" y2="17.4623">
					<stop  offset="0" style="stop-color:#1E9966"/>
					<stop  offset="0.3168" style="stop-color:#4CA662"/>
					<stop  offset="0.7398" style="stop-color:#6FB65D"/>
					<stop  offset="1" style="stop-color:#7BBC5A"/>
				</linearGradient>
				<path fill="url(#SVGID_3_)" d="M35.24,20.514L16.265,9.732c-1.113-0.633-2.101-0.554-2.7,0.079L29.754,26L35.24,20.514z"/>
			</g>
		</g>
	</g>
</g>
<g>
	<path fill="#FFFFFF" stroke="#FFFFFF" stroke-width="0.2" stroke-miterlimit="10" d="M63.261,19.134
		c-0.437,0-0.808-0.121-1.115-0.364c-0.307-0.243-0.525-0.585-0.653-1.026l0.704-0.293c0.179,0.631,0.545,0.947,1.098,0.947
		c0.357,0,0.633-0.116,0.825-0.348c0.192-0.231,0.289-0.546,0.289-0.942V13h0.771v4.089c0,0.654-0.181,1.158-0.541,1.513
		S63.82,19.134,63.261,19.134z"/>
	<path fill="#FFFFFF" stroke="#FFFFFF" stroke-width="0.2" stroke-miterlimit="10" d="M69.957,13.737h-2.732v1.902h2.464v0.721
		h-2.464v1.902h2.732V19h-3.503v-6h3.503V13.737z"/>
	<path fill="#FFFFFF" stroke="#FFFFFF" stroke-width="0.2" stroke-miterlimit="10" d="M73.208,19h-0.771v-5.263H70.76V13h4.123
		v0.737h-1.676V19z"/>
	<path fill="#FFFFFF" stroke="#FFFFFF" stroke-width="0.2" stroke-miterlimit="10" d="M75.521,19v-0.805l3.192-4.458h-3.059V13
		h3.955v0.805l-3.192,4.458h3.227V19H75.521z"/>
	<path fill="#FFFFFF" stroke="#FFFFFF" stroke-width="0.2" stroke-miterlimit="10" d="M82.794,19h-0.771v-5.263h-1.676V13h4.123
		v0.737h-1.676V19z"/>
	<path fill="#FFFFFF" stroke="#FFFFFF" stroke-width="0.2" stroke-miterlimit="10" d="M87.455,19v-6h2.169
		c0.47,0,0.876,0.155,1.22,0.465c0.344,0.311,0.516,0.7,0.516,1.169c0,0.285-0.074,0.537-0.223,0.754
		c-0.147,0.218-0.345,0.383-0.591,0.495v0.033c0.296,0.101,0.539,0.274,0.729,0.52c0.189,0.246,0.285,0.531,0.285,0.855
		c0,0.492-0.181,0.899-0.541,1.223C90.659,18.838,90.233,19,89.741,19H87.455z M88.225,15.572h1.399c0.291,0,0.524-0.096,0.7-0.289
		c0.176-0.192,0.264-0.403,0.264-0.632s-0.085-0.439-0.256-0.628c-0.17-0.19-0.395-0.285-0.674-0.285h-1.433V15.572z M88.225,18.263
		h1.55c0.296,0,0.536-0.104,0.721-0.311c0.185-0.206,0.276-0.433,0.276-0.679c0-0.246-0.095-0.47-0.285-0.674
		c-0.189-0.204-0.438-0.306-0.746-0.306h-1.516V18.263z"/>
	<path fill="#FFFFFF" stroke="#FFFFFF" stroke-width="0.2" stroke-miterlimit="10" d="M96.102,13.737h-2.732v1.902h2.464v0.721
		h-2.464v1.902h2.732V19h-3.503v-6h3.503V13.737z"/>
	<path fill="#FFFFFF" stroke="#FFFFFF" stroke-width="0.2" stroke-miterlimit="10" d="M97.309,19v-6h0.771v6H97.309z"/>
</g>
<g>
</g>
<g>
</g>
<g>
</g>
<g>
</g>
<g>
</g>
<g>
</g>
<g>
</g>
<g>
</g>
<g>
</g>
<g>
</g>
<g>
</g>
<g>
</g>
<g>
</g>
<g>
</g>
<g>
</g>
<g>
</g>
</svg>
