<?xml version="1.0" encoding="utf-8"?>
<!-- Generator: Adobe Illustrator 16.0.0, SVG Export Plug-In . SVG Version: 6.00 Build 0)  -->
<!DOCTYPE svg PUBLIC "-//W3C//DTD SVG 1.1//EN" "http://www.w3.org/Graphics/SVG/1.1/DTD/svg11.dtd">
<svg version="1.1" id="Ebene_1" xmlns="http://www.w3.org/2000/svg" xmlns:xlink="http://www.w3.org/1999/xlink" x="0px" y="0px"
	 width="370px" height="200px" viewBox="0 0 370 200" enable-background="new 0 0 370 200" xml:space="preserve">
<g>
	<path fill="#B90276" d="M315.661,181.785c-0.595-0.825-0.894-2.057-0.894-3.686c0-1.609,0.299-2.856,0.901-3.732
		c0.603-0.885,1.462-1.322,2.595-1.322c1.323,0,2.288,0.389,2.882,1.158c0.606,0.771,0.901,2.064,0.901,3.871v0.408
		c0,1.602-0.286,2.76-0.886,3.472c-0.594,0.716-1.55,1.082-2.873,1.082C317.132,183.036,316.264,182.615,315.661,181.785
		L315.661,181.785L315.661,181.785z M322.413,184.418h1.575v-18.113h-1.94v5.189l0.051,0.896l0.08,0.924h-0.147
		c-0.923-1.26-2.254-1.889-3.98-1.889c-1.668,0-2.961,0.586-3.885,1.749c-0.935,1.158-1.401,2.792-1.401,4.898
		c0,2.103,0.468,3.724,1.395,4.86c0.922,1.146,2.216,1.719,3.893,1.719c1.777,0,3.112-0.647,3.998-1.949h0.108L322.413,184.418
		L322.413,184.418L322.413,184.418z M309.508,184.418v-8.328c0-1.625-0.389-2.805-1.172-3.551c-0.771-0.745-1.93-1.112-3.468-1.112
		c-0.876,0-1.672,0.173-2.384,0.519c-0.712,0.351-1.268,0.83-1.664,1.463h-0.097l-0.313-1.744h-1.57v12.755h1.934v-6.692
		c0-1.66,0.313-2.855,0.931-3.572c0.619-0.725,1.598-1.088,2.929-1.088c1.015,0,1.757,0.254,2.229,0.771
		c0.472,0.51,0.712,1.289,0.712,2.325v8.256L309.508,184.418L309.508,184.418L309.508,184.418z M284.069,171.663v8.345
		c0,1.622,0.388,2.801,1.158,3.538c0.774,0.737,1.929,1.108,3.483,1.108c0.9,0,1.71-0.174,2.404-0.506
		c0.703-0.338,1.256-0.813,1.651-1.444h0.105l0.272,1.714h1.602v-12.755h-1.93v6.702c0,1.65-0.315,2.843-0.927,3.576
		c-0.619,0.725-1.593,1.095-2.933,1.095c-1.012,0-1.752-0.257-2.225-0.774c-0.472-0.51-0.712-1.285-0.712-2.324v-8.273
		L284.069,171.663L284.069,171.663L284.069,171.663z M277.961,174.292c0.581,0.812,0.868,2.051,0.868,3.711
		c0,1.626-0.287,2.868-0.868,3.731c-0.586,0.863-1.47,1.302-2.654,1.302c-1.318,0-2.278-0.388-2.881-1.158
		c-0.594-0.774-0.893-2.06-0.893-3.854c0-1.789,0.289-3.065,0.876-3.819c0.58-0.759,1.528-1.138,2.852-1.138
		C276.474,173.064,277.375,173.475,277.961,174.292L277.961,174.292L277.961,174.292z M271.533,173.355h-0.09
		c0.056-0.782,0.09-1.668,0.09-2.648v-4.402H269.6v18.113h1.386l0.408-1.639h0.141c0.463,0.637,1.049,1.104,1.727,1.406
		c0.687,0.313,1.453,0.469,2.279,0.469c1.658,0,2.953-0.581,3.896-1.744c0.932-1.158,1.398-2.789,1.398-4.887
		c0-2.09-0.468-3.711-1.396-4.854c-0.923-1.146-2.225-1.719-3.899-1.719C273.77,171.452,272.435,172.084,271.533,173.355
		L271.533,173.355L271.533,173.355L271.533,173.355z M263.487,172.102c-0.66,0.45-1.233,1.092-1.706,1.922h-0.097l-0.215-2.359
		h-1.597v12.755h1.934v-6.845c0-1.247,0.357-2.292,1.091-3.131c0.741-0.838,1.622-1.26,2.653-1.26c0.405,0,0.872,0.061,1.395,0.174
		l0.267-1.791c-0.451-0.096-0.956-0.139-1.521-0.139C264.898,171.427,264.152,171.654,263.487,172.102L263.487,172.102
		L263.487,172.102z M253.685,174.018c0.548,0.649,0.822,1.58,0.822,2.797h-6.669c0.104-1.179,0.464-2.102,1.074-2.768
		c0.603-0.669,1.428-1.002,2.446-1.002C252.366,173.045,253.146,173.369,253.685,174.018L253.685,174.018L253.685,174.018z
		 M254.09,184.456c0.61-0.126,1.255-0.337,1.938-0.636v-1.719c-1.344,0.571-2.695,0.858-4.068,0.858
		c-1.307,0-2.321-0.388-3.037-1.163c-0.712-0.779-1.091-1.916-1.133-3.412h8.786v-1.222c0-1.718-0.468-3.108-1.395-4.157
		c-0.932-1.053-2.195-1.58-3.8-1.58c-1.702,0-3.063,0.607-4.073,1.816c-1.016,1.209-1.521,2.847-1.521,4.898
		c0,2.043,0.543,3.635,1.63,4.78c1.095,1.154,2.582,1.731,4.465,1.731C252.746,184.654,253.487,184.587,254.09,184.456
		L254.09,184.456L254.09,184.456z M239.607,184.418l4.84-12.755h-2.071c-1.58,4.343-2.604,7.165-3.05,8.454
		c-0.459,1.289-0.726,2.145-0.817,2.553h-0.097c-0.103-0.521-0.465-1.672-1.092-3.445l-2.747-7.562h-2.063l4.835,12.755H239.607
		L239.607,184.418L239.607,184.418z M230.609,178.833c-0.529-0.563-1.555-1.116-3.065-1.669c-1.104-0.412-1.841-0.725-2.229-0.943
		c-0.396-0.215-0.678-0.441-0.847-0.687c-0.177-0.24-0.266-0.53-0.266-0.872c0-0.501,0.235-0.896,0.698-1.188
		c0.469-0.287,1.163-0.431,2.073-0.431c1.04,0,2.198,0.267,3.479,0.792l0.687-1.57c-1.313-0.562-2.654-0.84-4.027-0.84
		c-1.47,0-2.637,0.305-3.482,0.902c-0.843,0.602-1.26,1.423-1.26,2.464c0,0.581,0.117,1.078,0.357,1.5
		c0.252,0.417,0.619,0.796,1.12,1.124c0.497,0.329,1.344,0.712,2.536,1.154c1.247,0.484,2.085,0.9,2.515,1.25
		c0.431,0.354,0.646,0.785,0.646,1.277c0,0.66-0.274,1.149-0.81,1.471c-0.548,0.324-1.322,0.483-2.33,0.483
		c-0.647,0-1.331-0.089-2.033-0.266c-0.699-0.183-1.36-0.421-1.973-0.737v1.795c0.948,0.539,2.264,0.809,3.96,0.809
		c1.593,0,2.839-0.323,3.729-0.969c0.885-0.645,1.323-1.559,1.323-2.746C231.41,180.092,231.148,179.389,230.609,178.833
		L230.609,178.833L230.609,178.833z M217.066,172.102c-0.67,0.45-1.229,1.092-1.71,1.922h-0.093l-0.219-2.359h-1.598v12.755h1.935
		v-6.845c0-1.247,0.362-2.292,1.1-3.131c0.729-0.838,1.613-1.26,2.646-1.26c0.408,0,0.867,0.061,1.401,0.174l0.263-1.791
		c-0.451-0.096-0.957-0.139-1.518-0.139C218.465,171.427,217.736,171.654,217.066,172.102L217.066,172.102L217.066,172.102z
		 M209.477,184.418v-8.328c0-1.607-0.384-2.783-1.167-3.529c-0.779-0.74-1.95-1.107-3.505-1.107c-0.901,0-1.71,0.177-2.41,0.527
		c-0.693,0.354-1.246,0.834-1.621,1.447h-0.113c0.055-0.434,0.089-0.984,0.089-1.639v-5.484h-1.931v18.113h1.931v-6.672
		c0-1.656,0.314-2.855,0.927-3.581c0.619-0.729,1.601-1.101,2.936-1.101c1.013,0,1.758,0.254,2.229,0.771
		c0.472,0.51,0.708,1.289,0.708,2.325v8.256L209.477,184.418L209.477,184.418L209.477,184.418z M192.635,174.018
		c0.544,0.649,0.817,1.58,0.817,2.797h-6.674c0.11-1.179,0.469-2.102,1.074-2.768c0.611-0.669,1.43-1.002,2.452-1.002
		C191.316,173.045,192.092,173.369,192.635,174.018L192.635,174.018L192.635,174.018z M193.035,184.456
		c0.609-0.126,1.255-0.337,1.94-0.636v-1.719c-1.344,0.571-2.704,0.858-4.077,0.858c-1.302,0-2.311-0.388-3.032-1.163
		c-0.717-0.779-1.096-1.916-1.134-3.412h8.787v-1.222c0-1.718-0.464-3.108-1.395-4.157c-0.932-1.053-2.194-1.58-3.795-1.58
		c-1.711,0-3.067,0.607-4.078,1.816c-1.016,1.209-1.521,2.847-1.521,4.898c0,2.043,0.543,3.635,1.636,4.78
		c1.087,1.154,2.577,1.731,4.465,1.731C191.691,184.654,192.429,184.587,193.035,184.456L193.035,184.456L193.035,184.456z
		 M174.745,177.889c0.063-0.893,0.095-1.55,0.095-1.979v-9.604h-1.915v18.112h1.915v-4.772l1.451-1.26l4.507,6.032h2.338
		l-5.531-7.321l5.173-5.434h-2.295l-4.12,4.363c-0.682,0.768-1.191,1.387-1.521,1.861H174.745L174.745,177.889L174.745,177.889z
		 M166.817,172.102c-0.668,0.45-1.233,1.092-1.71,1.922h-0.09l-0.224-2.359h-1.599v12.755h1.937v-6.845
		c0-1.247,0.366-2.292,1.102-3.131c0.73-0.838,1.613-1.26,2.646-1.26c0.404,0,0.87,0.061,1.397,0.174l0.271-1.791
		c-0.451-0.096-0.96-0.139-1.527-0.139C168.218,171.427,167.487,171.654,166.817,172.102L166.817,172.102L166.817,172.102z
		 M157.017,174.018c0.543,0.649,0.813,1.58,0.813,2.797h-6.666c0.106-1.179,0.465-2.102,1.076-2.768
		c0.608-0.669,1.426-1.002,2.449-1.002C155.697,173.045,156.474,173.369,157.017,174.018L157.017,174.018L157.017,174.018z
		 M157.419,184.456c0.605-0.126,1.255-0.337,1.936-0.636v-1.719c-1.342,0.571-2.7,0.858-4.07,0.858
		c-1.307,0-2.317-0.388-3.033-1.163c-0.718-0.779-1.096-1.916-1.135-3.412h8.788v-1.222c0-1.718-0.465-3.108-1.397-4.157
		c-0.931-1.053-2.197-1.58-3.793-1.58c-1.706,0-3.068,0.607-4.082,1.816c-1.009,1.209-1.52,2.847-1.52,4.898
		c0,2.043,0.548,3.635,1.635,4.78c1.091,1.154,2.582,1.731,4.467,1.731C156.076,184.654,156.809,184.587,157.419,184.456
		L157.419,184.456L157.419,184.456z M141.758,178.344c-0.451,1.247-0.815,2.502-1.095,3.758c-0.266-1.195-0.619-2.427-1.068-3.689
		l-3.916-11.012h-2.093l6.1,17.019h1.952l6.138-17.019h-2.134L141.758,178.344L141.758,178.344L141.758,178.344z M123.329,172.102
		c-0.666,0.45-1.238,1.092-1.71,1.922h-0.093l-0.223-2.359h-1.595v12.755h1.934v-6.845c0-1.247,0.366-2.292,1.103-3.131
		c0.73-0.838,1.614-1.26,2.646-1.26c0.402,0,0.868,0.061,1.396,0.174l0.268-1.791c-0.451-0.096-0.958-0.139-1.525-0.139
		C124.731,171.427,123.999,171.654,123.329,172.102L123.329,172.102L123.329,172.102z M113.531,174.018
		c0.544,0.649,0.813,1.58,0.813,2.797h-6.668c0.104-1.179,0.468-2.102,1.074-2.768c0.61-0.669,1.426-1.002,2.45-1.002
		C112.21,173.045,112.985,173.369,113.531,174.018L113.531,174.018L113.531,174.018z M113.931,184.456
		c0.607-0.126,1.255-0.337,1.938-0.636v-1.719c-1.345,0.571-2.703,0.858-4.074,0.858c-1.307,0-2.316-0.388-3.033-1.163
		c-0.718-0.779-1.097-1.916-1.135-3.412h8.789v-1.222c0-1.718-0.467-3.108-1.398-4.157c-0.931-1.053-2.197-1.58-3.793-1.58
		c-1.708,0-3.069,0.607-4.082,1.816s-1.521,2.847-1.521,4.898c0,2.043,0.55,3.635,1.641,4.78c1.089,1.154,2.576,1.731,4.463,1.731
		C112.585,184.654,113.32,184.587,113.931,184.456L113.931,184.456L113.931,184.456z M102.364,184.418v-8.328
		c0-1.625-0.386-2.805-1.162-3.551c-0.775-0.745-1.933-1.112-3.468-1.112c-0.878,0-1.672,0.173-2.389,0.519
		c-0.714,0.351-1.27,0.83-1.664,1.463h-0.092l-0.316-1.744h-1.568v12.755h1.932v-6.692c0-1.66,0.31-2.855,0.931-3.572
		c0.622-0.725,1.6-1.088,2.937-1.088c1.007,0,1.748,0.254,2.222,0.771c0.474,0.51,0.71,1.289,0.71,2.325v8.256L102.364,184.418
		L102.364,184.418L102.364,184.418z M85.522,174.018c0.542,0.649,0.815,1.58,0.815,2.797h-6.67c0.108-1.179,0.467-2.102,1.076-2.768
		c0.607-0.669,1.428-1.002,2.448-1.002C84.202,173.045,84.977,173.369,85.522,174.018L85.522,174.018L85.522,174.018z
		 M85.923,184.456c0.607-0.126,1.255-0.337,1.938-0.636v-1.719c-1.339,0.571-2.699,0.858-4.07,0.858
		c-1.305,0-2.317-0.388-3.033-1.163c-0.72-0.779-1.098-1.916-1.135-3.412h8.787v-1.222c0-1.718-0.467-3.108-1.396-4.157
		c-0.931-1.053-2.197-1.58-3.793-1.58c-1.708,0-3.069,0.607-4.082,1.816c-1.009,1.209-1.519,2.847-1.519,4.898
		c0,2.043,0.545,3.635,1.636,4.78c1.087,1.154,2.578,1.731,4.463,1.731C84.579,184.654,85.316,184.587,85.923,184.456
		L85.923,184.456L85.923,184.456z M74.357,184.418v-8.328c0-1.607-0.39-2.783-1.169-3.529c-0.778-0.74-1.95-1.107-3.509-1.107
		c-0.901,0-1.702,0.177-2.405,0.527c-0.701,0.354-1.243,0.834-1.62,1.447h-0.117c0.061-0.434,0.09-0.984,0.09-1.639v-5.484h-1.93
		v18.113h1.93v-6.672c0-1.656,0.312-2.855,0.927-3.581c0.617-0.729,1.596-1.101,2.938-1.101c1.009,0,1.75,0.254,2.222,0.771
		c0.474,0.51,0.716,1.289,0.716,2.325v8.256L74.357,184.418L74.357,184.418L74.357,184.418z M60.669,183.988v-1.715
		c-1.118,0.459-2.203,0.688-3.273,0.688c-1.237,0-2.176-0.417-2.808-1.256c-0.634-0.838-0.95-2.043-0.95-3.605
		c0-3.307,1.293-4.961,3.888-4.961c0.389,0,0.834,0.055,1.337,0.172c0.507,0.109,0.972,0.252,1.396,0.422l0.596-1.644
		c-0.352-0.173-0.832-0.329-1.444-0.464c-0.613-0.135-1.227-0.198-1.84-0.198c-1.898,0-3.365,0.587-4.391,1.749
		c-1.03,1.158-1.544,2.811-1.544,4.94c0,2.085,0.505,3.69,1.519,4.827c1.014,1.138,2.441,1.711,4.288,1.711
		C58.74,184.654,59.816,184.432,60.669,183.988L60.669,183.988L60.669,183.988L60.669,183.988z M40.793,182.51
		c-0.423-0.361-0.636-0.896-0.636-1.597c0-0.894,0.341-1.546,1.021-1.976c0.676-0.422,1.786-0.662,3.324-0.713l1.931-0.084v1.154
		c0,1.188-0.343,2.105-1.032,2.768c-0.685,0.662-1.63,0.99-2.833,0.99C41.809,183.055,41.219,182.872,40.793,182.51L40.793,182.51
		L40.793,182.51z M48.365,184.418v-8.707c0-1.49-0.369-2.572-1.101-3.252c-0.732-0.67-1.862-1.007-3.382-1.007
		c-0.752,0-1.502,0.093-2.251,0.291c-0.748,0.188-1.438,0.459-2.066,0.805l0.593,1.476c1.344-0.653,2.546-0.979,3.609-0.979
		c0.948,0,1.635,0.24,2.066,0.716c0.432,0.478,0.646,1.214,0.646,2.216v0.793l-2.165,0.07c-4.12,0.127-6.182,1.475-6.182,4.053
		c0,1.2,0.36,2.131,1.078,2.78c0.716,0.652,1.706,0.981,2.972,0.981c0.948,0,1.737-0.147,2.372-0.43
		c0.632-0.283,1.268-0.822,1.902-1.627h0.093l0.383,1.819L48.365,184.418L48.365,184.418L48.365,184.418z M26.747,177.229
		l2.003-5.278c0.319-0.894,0.563-1.71,0.734-2.451c0.271,0.969,0.535,1.786,0.792,2.451l1.979,5.278H26.747L26.747,177.229
		L26.747,177.229z M37.04,184.418l-6.693-17.09h-1.664l-6.729,17.09h2.003l2.096-5.417h6.822l2.117,5.417H37.04L37.04,184.418
		L37.04,184.418z"/>
	<path fill="#B90276" d="M369,21.66l-10.83,29.01c-0.26,0.42-0.54,0.82-0.74,1.35l-34.89,92.54h-36.39L250.97,52.02
		c-1.21-3.13-3.38-4.33-6.75-4.33h-1.05l1.97-5.21L253,21.66h5.86c10.12,0,14.939,3.13,18.08,11.57l27.439,81.88l28.521-81.88
		c3.14-8.44,8.199-11.57,18.069-11.57H369z"/>
	<path fill="#FFFFFF" d="M79.539,91.304c0,14.939-11.565,32.29-27.956,32.29c-12.528,0-18.557-7.709-18.557-15.902
		c0-17.114,25.305-19.283,41.209-19.283h5.303L79.539,91.304L79.539,91.304L79.539,91.304z M124.605,144.559v-25.779h-9.64
		c-3.372,0-5.303-1.934-5.303-5.303V67.685c0-27.471-12.05-48.918-53.02-48.918c-12.77,0-45.062,2.41-45.062,25.302v13.014h28.436
		v-6.506c0-6.748,10.847-8.193,16.388-8.193c15.664,0,22.654,6.506,22.654,24.097v0.964h-3.855
		c-20.002,0-73.021,3.134-73.021,41.692c0,24.579,20.002,38.313,41.933,38.313c27.713,0,37.11-21.686,37.11-21.686h0.482
		c0,0-0.238,2.174-0.238,5.303c0,7.229,4.334,13.492,15.66,13.492H124.605L124.605,144.559L124.605,144.559z"/>
	<g>
		<g>
			<defs>
				<path id="SVGID_1_" d="M79.539,91.304c0,14.939-11.565,32.29-27.956,32.29c-12.528,0-18.557-7.709-18.557-15.902
					c0-17.114,25.305-19.283,41.209-19.283h5.303L79.539,91.304L79.539,91.304L79.539,91.304z M124.605,144.559v-25.779h-9.64
					c-3.372,0-5.303-1.934-5.303-5.303V67.685c0-27.471-12.05-48.918-53.02-48.918c-12.77,0-45.062,2.41-45.062,25.302v13.014
					h28.436v-6.506c0-6.748,10.847-8.193,16.388-8.193c15.664,0,22.654,6.506,22.654,24.097v0.964h-3.855
					c-20.002,0-73.021,3.134-73.021,41.692c0,24.579,20.002,38.313,41.933,38.313c27.713,0,37.11-21.686,37.11-21.686h0.482
					c0,0-0.238,2.174-0.238,5.303c0,7.229,4.334,13.492,15.66,13.492H124.605L124.605,144.559L124.605,144.559z"/>
			</defs>
			<clipPath id="SVGID_2_">
				<use xlink:href="#SVGID_1_"  overflow="visible"/>
			</clipPath>
			<path clip-path="url(#SVGID_2_)" fill="#FFCC00" d="M105.58,385.813h61.906c-77.255-83.607-81.479-202.649-12.171-291.538
				C218.803,12.26,324.925-11.984,418.57,23.474l-25.14-58.107C292.906-55.793,170.663-18.949,103.99,82.641
				C38.913,181.579,46.853,279.458,105.58,385.813"/>
		</g>
		<g>
			<defs>
				<path id="SVGID_3_" d="M79.539,91.304c0,14.939-11.565,32.29-27.956,32.29c-12.528,0-18.557-7.709-18.557-15.902
					c0-17.114,25.305-19.283,41.209-19.283h5.303L79.539,91.304L79.539,91.304L79.539,91.304z M124.605,144.559v-25.779h-9.64
					c-3.372,0-5.303-1.934-5.303-5.303V67.685c0-27.471-12.05-48.918-53.02-48.918c-12.77,0-45.062,2.41-45.062,25.302v13.014
					h28.436v-6.506c0-6.748,10.847-8.193,16.388-8.193c15.664,0,22.654,6.506,22.654,24.097v0.964h-3.855
					c-20.002,0-73.021,3.134-73.021,41.692c0,24.579,20.002,38.313,41.933,38.313c27.713,0,37.11-21.686,37.11-21.686h0.482
					c0,0-0.238,2.174-0.238,5.303c0,7.229,4.334,13.492,15.66,13.492H124.605L124.605,144.559L124.605,144.559z"/>
			</defs>
			<clipPath id="SVGID_4_">
				<use xlink:href="#SVGID_3_"  overflow="visible"/>
			</clipPath>
			<path clip-path="url(#SVGID_4_)" fill="#F3953F" d="M56.219,414.376h55.209C45.532,295.027,36.62,185.202,109.644,74.185
				C184.459-39.813,321.631-81.153,434.43-57.408l-21.946-50.696C264.064-124.737,123.306-57.613,52.06,77.152
				C-9.679,194.111,1.599,307.504,56.219,414.376"/>
		</g>
		<g>
			<defs>
				<path id="SVGID_5_" d="M79.539,91.304c0,14.939-11.565,32.29-27.956,32.29c-12.528,0-18.557-7.709-18.557-15.902
					c0-17.114,25.305-19.283,41.209-19.283h5.303L79.539,91.304L79.539,91.304L79.539,91.304z M124.605,144.559v-25.779h-9.64
					c-3.372,0-5.303-1.934-5.303-5.303V67.685c0-27.471-12.05-48.918-53.02-48.918c-12.77,0-45.062,2.41-45.062,25.302v13.014
					h28.436v-6.506c0-6.748,10.847-8.193,16.388-8.193c15.664,0,22.654,6.506,22.654,24.097v0.964h-3.855
					c-20.002,0-73.021,3.134-73.021,41.692c0,24.579,20.002,38.313,41.933,38.313c27.713,0,37.11-21.686,37.11-21.686h0.482
					c0,0-0.238,2.174-0.238,5.303c0,7.229,4.334,13.492,15.66,13.492H124.605L124.605,144.559L124.605,144.559z"/>
			</defs>
			<clipPath id="SVGID_6_">
				<use xlink:href="#SVGID_5_"  overflow="visible"/>
			</clipPath>
			<path clip-path="url(#SVGID_6_)" fill="#D51317" d="M10.485,388.331h43.813C5.133,292.137-5.016,190.075,50.556,84.802
				C114.493-36.152,241.806-96.423,374.972-81.945l-16.815-38.851C206.384-124.547,74.596-49.868,11.547,79.46
				C-41.89,187.932-29.604,283.59,10.485,388.331"/>
		</g>
		<g>
			<defs>
				<path id="SVGID_7_" d="M79.539,91.304c0,14.939-11.565,32.29-27.956,32.29c-12.528,0-18.557-7.709-18.557-15.902
					c0-17.114,25.305-19.283,41.209-19.283h5.303L79.539,91.304L79.539,91.304L79.539,91.304z M124.605,144.559v-25.779h-9.64
					c-3.372,0-5.303-1.934-5.303-5.303V67.685c0-27.471-12.05-48.918-53.02-48.918c-12.77,0-45.062,2.41-45.062,25.302v13.014
					h28.436v-6.506c0-6.748,10.847-8.193,16.388-8.193c15.664,0,22.654,6.506,22.654,24.097v0.964h-3.855
					c-20.002,0-73.021,3.134-73.021,41.692c0,24.579,20.002,38.313,41.933,38.313c27.713,0,37.11-21.686,37.11-21.686h0.482
					c0,0-0.238,2.174-0.238,5.303c0,7.229,4.334,13.492,15.66,13.492H124.605L124.605,144.559L124.605,144.559z"/>
			</defs>
			<clipPath id="SVGID_8_">
				<use xlink:href="#SVGID_7_"  overflow="visible"/>
			</clipPath>
			<path clip-path="url(#SVGID_8_)" fill="#4C76BA" d="M-22.685,385.813h33.333c-39.688-103.705-51.855-198.416,1.054-305.815
				C74.124-48.048,204.61-121.988,354.879-118.277l-13.801-31.896C194.514-158.105,41.857-72.912-24.275,82.641
				C-70.845,191.634-66.083,274.172-22.685,385.813"/>
		</g>
	</g>
	<path fill="#B90276" d="M247.01,21.66l-1.87,4.94l-3.569,9.45l-5.94,15.73c-0.03,0.09-0.09,0.15-0.13,0.24l-34.89,92.54h-36.39
		l-35.18-92.54c-1.2-3.13-3.37-4.33-6.75-4.33h-2.65V21.66h17.3c10.12,0,14.94,3.13,18.07,11.57l27.44,81.88l28.53-81.88
		c3.119-8.44,8.18-11.57,18.069-11.57H247.01z"/>
</g>
<g>
</g>
</svg>
