<?xml version="1.0" encoding="utf-8"?>
<!-- Generator: Adobe Illustrator 16.0.4, SVG Export Plug-In . SVG Version: 6.00 Build 0)  -->
<!DOCTYPE svg PUBLIC "-//W3C//DTD SVG 1.1//EN" "http://www.w3.org/Graphics/SVG/1.1/DTD/svg11.dtd">
<svg version="1.1" id="Ebene_1" xmlns="http://www.w3.org/2000/svg" xmlns:xlink="http://www.w3.org/1999/xlink" x="0px" y="0px"
	 width="265.237px" height="294.739px" viewBox="0 0 265.237 294.739" enable-background="new 0 0 265.237 294.739"
	 xml:space="preserve">
<g>
	<polygon fill="#BFC9C3" points="97.577,98.283 214.855,109.765 195.786,84.565 79.617,72.994 	"/>
	<polygon fill="#D3D9D7" points="195.802,84.554 79.609,72.982 79.609,41.199 195.802,52.59 	"/>
	<polygon fill="#002237" points="191.132,80.289 84.149,69.608 84.149,46.534 191.132,57.065 	"/>
	<polygon fill="#D3D9D7" points="81.721,180.469 202.573,192.287 202.573,274.41 81.721,262.197 	"/>
	<polygon fill="#A6B7B5" points="202.572,274.427 265.185,251.621 265.185,29.223 195.778,52.613 195.778,84.57 214.831,109.797 
		202.572,192.304 	"/>
	<polygon fill="#E3E8EB" points="157.771,17.019 265.222,29.188 195.778,52.597 79.608,41.2 	"/>
	<polygon fill="#B70F75" points="159.663,0 265.222,8.559 195.778,31.969 79.608,20.572 	"/>
	<polygon fill="#EAEDED" points="97.577,98.283 81.721,180.469 202.572,192.287 214.831,109.78 	"/>
	<polygon fill="#C965A6" points="197.714,188.123 157.602,184.28 170.167,108.489 209.507,112.329 	"/>
	<g>
		<path fill="#69003F" d="M178.244,159.842c-0.041,0.241-0.267,0.414-0.504,0.389l-9.91-1.086c-0.237-0.025-0.397-0.24-0.357-0.481
			l1.039-6.174c0.04-0.24,0.267-0.414,0.505-0.389l9.911,1.07c0.238,0.026,0.399,0.241,0.358,0.483L178.244,159.842z"/>
		<path fill="#E8AFD9" d="M177.919,159.538c-0.037,0.22-0.244,0.379-0.462,0.354l-9.227-1.01c-0.218-0.024-0.365-0.221-0.328-0.44
			l0.951-5.646c0.036-0.22,0.243-0.378,0.461-0.354l9.229,0.997c0.218,0.023,0.364,0.221,0.327,0.44L177.919,159.538z"/>
		<polygon fill="#002237" points="170.97,158.325 170.291,158.251 171.063,153.66 171.743,153.733 		"/>
		<polygon fill="#AA0C6C" points="176.729,158.644 173.624,158.305 174.306,154.257 177.41,154.594 		"/>
		<polygon fill="#69003F" points="176.628,158.523 173.772,158.211 174.417,154.377 177.274,154.688 		"/>
		<polygon fill="#AA0C6C" points="176.32,158.015 174.237,157.786 174.725,154.893 176.808,155.118 		"/>
		<polygon fill="#69003F" points="183.644,179.812 164.269,177.693 166.53,164.253 185.915,166.312 		"/>
		<polygon fill="#69003F" points="183.343,179.354 164.767,177.325 163.162,174.974 181.722,176.971 		"/>
		<polygon fill="#AA0C6C" points="182.171,174.453 163.593,172.434 166.893,164.682 185.479,166.658 		"/>
		<polygon fill="#820951" points="181.745,176.986 163.166,174.967 163.591,172.438 182.172,174.447 		"/>
		<polygon fill="#002237" points="180.37,172.983 181.205,171.188 177,170.734 177.63,169.381 171.831,168.758 171.201,170.109 
			166.994,169.658 166.161,171.447 		"/>
		<polygon fill="#820951" points="182.172,174.447 181.745,176.986 183.343,179.354 185.479,166.658 		"/>
		<polygon fill="#820951" points="187.726,150.769 169.104,148.767 174.723,115.833 193.252,117.867 		"/>
		<polygon fill="#E8AFD9" points="187.726,150.769 188.646,145.282 188.634,145.332 170.042,143.345 170.031,143.349 
			169.104,148.767 		"/>
		<polygon fill="#002237" points="184.499,147.338 180.835,146.954 181.037,145.795 177.115,145.384 176.912,146.543 
			173.304,146.165 173.195,146.78 176.805,147.158 176.607,148.281 180.53,148.692 180.727,147.568 184.393,147.952 		"/>
		<polygon fill="#FFFFFF" points="178.702,128.11 175.326,127.765 175.906,124.368 179.282,124.715 		"/>
		<polygon fill="#FFFFFF" points="189.479,123.868 176.224,122.465 176.908,118.168 190.163,119.571 		"/>
		<polygon fill="#FFFFFF" points="177.891,132.865 174.515,132.52 175.095,129.123 178.471,129.469 		"/>
		<polygon fill="#FFFFFF" points="177.079,137.62 173.703,137.274 174.283,133.878 177.659,134.224 		"/>
		<polygon fill="#FFFFFF" points="176.268,142.375 172.892,142.03 173.472,138.634 176.848,138.979 		"/>
		<polygon fill="#FFFFFF" points="183.653,128.617 180.277,128.271 180.857,124.875 184.233,125.222 		"/>
		<polygon fill="#FFFFFF" points="182.842,133.372 179.466,133.026 180.046,129.63 183.422,129.977 		"/>
		<polygon fill="#FFFFFF" points="182.03,138.127 178.654,137.781 179.234,134.385 182.61,134.731 		"/>
		<polygon fill="#FFFFFF" points="181.218,142.883 177.843,142.537 178.422,139.141 181.798,139.486 		"/>
		<polygon fill="#FFFFFF" points="188.604,129.124 185.229,128.778 185.808,125.382 189.184,125.728 		"/>
		<polygon fill="#FFFFFF" points="187.792,133.879 184.417,133.533 184.996,130.137 188.372,130.482 		"/>
		<polygon fill="#FFFFFF" points="186.981,138.635 183.606,138.289 184.185,134.893 187.561,135.239 		"/>
		<polygon fill="#FFFFFF" points="186.169,143.39 182.794,143.044 183.373,139.647 186.749,139.993 		"/>
		<polygon fill="#820951" points="159.72,184.416 85.926,177.338 99.853,101.707 172.029,108.7 		"/>
		<polygon fill="#373735" points="159.72,155.571 95.643,149.288 103.106,106.731 166.984,113.579 		"/>
		<path fill="#002237" d="M158.954,154.335c-0.023,0.141-0.157,0.241-0.298,0.225l-61.645-5.986
			c-0.141-0.017-0.234-0.142-0.209-0.28l7.082-40.382c0.024-0.139,0.157-0.239,0.299-0.224l61.436,6.597
			c0.141,0.016,0.234,0.142,0.21,0.282L158.954,154.335z"/>
		<path fill="#001B29" d="M158.518,153.757c-0.024,0.138-0.155,0.235-0.292,0.219l-60.604-5.857
			c-0.138-0.016-0.229-0.139-0.207-0.273l6.906-39.373c0.024-0.135,0.155-0.233,0.293-0.219l60.392,6.492
			c0.138,0.016,0.229,0.139,0.206,0.276L158.518,153.757z"/>
		<path fill="#C965A6" d="M158.085,153.182c-0.023,0.134-0.152,0.229-0.287,0.213l-59.568-5.73
			c-0.135-0.015-0.227-0.135-0.202-0.267l6.728-38.364c0.024-0.132,0.152-0.228,0.288-0.213l59.352,6.388
			c0.136,0.015,0.227,0.135,0.203,0.269L158.085,153.182z"/>
		<g opacity="0.5">
			<g>
				<defs>
					<rect id="SVGID_1_" x="103.876" y="109.862" width="59.257" height="12.272"/>
				</defs>
				<clipPath id="SVGID_2_">
					<use xlink:href="#SVGID_1_"  overflow="visible"/>
				</clipPath>
				<g clip-path="url(#SVGID_2_)">
					<defs>
						<path id="SVGID_3_" d="M145.014,119.05c6.033,0.663,11.77,1.718,17.081,3.086l1.035-5.899
							c0.023-0.128-0.063-0.243-0.193-0.258l-56.721-6.115c-0.129-0.014-0.252,0.078-0.273,0.204l-2.066,11.774
							C114.83,118.548,129.42,117.347,145.014,119.05"/>
					</defs>
					<clipPath id="SVGID_4_">
						<use xlink:href="#SVGID_3_"  overflow="visible"/>
					</clipPath>
					
						<linearGradient id="SVGID_5_" gradientUnits="userSpaceOnUse" x1="-852.4268" y1="340.5488" x2="-851.4268" y2="340.5488" gradientTransform="matrix(56.7888 8.4489 10.1631 -57.951 45052.9062 27049.041)">
						<stop  offset="0" style="stop-color:#E3E8EB"/>
						<stop  offset="1" style="stop-color:#ACC1CC"/>
					</linearGradient>
					<polygon clip-path="url(#SVGID_4_)" fill="url(#SVGID_5_)" points="105.384,101.255 165.253,110.162 161.646,130.73 
						101.776,121.823 					"/>
				</g>
			</g>
		</g>
		<polygon fill="#082936" points="148.629,176.5 100.101,171.652 102.188,159.269 150.74,163.981 		"/>
		<path fill="#E4E6E7" d="M121.649,127.597c-0.075,0.407-0.442,0.709-0.817,0.674l-10.231-0.951c-0.377-0.035-0.618-0.393-0.543-0.8
			l1.506-8.054c0.075-0.407,0.442-0.708,0.817-0.674l10.232,0.951c0.376,0.035,0.618,0.393,0.542,0.8L121.649,127.597z
			 M120.565,133.401c0.074-0.407-0.167-0.766-0.543-0.801l-10.232-0.949c-0.375-0.036-0.741,0.266-0.817,0.672l-1.506,8.054
			c-0.075,0.407,0.167,0.766,0.543,0.8l10.232,0.951c0.375,0.035,0.741-0.267,0.817-0.673L120.565,133.401z M138.744,120.991
			c0.076-0.406-0.167-0.765-0.542-0.798l-10.232-0.952c-0.376-0.035-0.741,0.267-0.817,0.673l-1.505,8.055
			c-0.076,0.406,0.166,0.766,0.542,0.8l10.231,0.95c0.375,0.035,0.741-0.267,0.817-0.673L138.744,120.991z M136.153,134.85
			c0.076-0.406-0.166-0.765-0.542-0.8l-10.232-0.951c-0.375-0.035-0.741,0.267-0.816,0.674l-1.507,8.054
			c-0.075,0.406,0.166,0.765,0.542,0.8l10.232,0.951c0.375,0.034,0.742-0.267,0.818-0.674L136.153,134.85z M154.333,122.44
			c0.076-0.407-0.167-0.765-0.543-0.8l-10.232-0.951c-0.375-0.034-0.74,0.267-0.816,0.674l-1.506,8.054
			c-0.076,0.407,0.167,0.765,0.543,0.8l10.231,0.951c0.375,0.035,0.741-0.266,0.817-0.674L154.333,122.44z M151.742,136.298
			c0.076-0.406-0.167-0.765-0.542-0.8l-10.232-0.95c-0.375-0.035-0.742,0.267-0.817,0.673l-1.505,8.055
			c-0.076,0.406,0.166,0.765,0.542,0.799l10.231,0.952c0.375,0.034,0.741-0.268,0.817-0.674L151.742,136.298z"/>
		<polygon fill="#8B0857" points="195.778,31.969 195.778,52.597 265.222,29.188 265.222,8.559 		"/>
		<polygon fill="#AA0C6C" points="79.608,20.572 79.608,41.2 195.777,52.597 195.777,31.969 		"/>
		<polygon fill="#8B0857" points="202.567,274.37 202.567,288.588 265.237,265.804 265.237,251.586 		"/>
		<polygon fill="#AA0C6C" points="81.736,262.229 81.736,276.447 202.568,288.588 202.568,274.37 		"/>
		<polygon fill="#FFFFFF" points="88.465,26.985 84.64,26.666 84.64,25.325 93.949,26.103 93.949,27.446 90.106,27.123 
			90.106,38.009 88.465,37.867 		"/>
		<path fill="#FFFFFF" d="M95.066,38.436v-8.788l1.642,0.139v8.792L95.066,38.436z M96.896,27.332
			c0.018,0.546-0.393,0.947-1.047,0.892c-0.578-0.048-0.987-0.519-0.987-1.063c0-0.562,0.43-0.963,1.025-0.912
			C96.503,26.3,96.896,26.769,96.896,27.332"/>
		<path fill="#FFFFFF" d="M105.867,39.045c-0.43,0.181-1.382,0.389-2.594,0.283c-2.724-0.235-4.496-2.188-4.496-4.878
			c0-2.708,1.903-4.509,4.851-4.259c0.97,0.082,1.828,0.393,2.275,0.648l-0.373,1.206c-0.392-0.252-1.008-0.505-1.902-0.581
			c-2.071-0.177-3.19,1.219-3.19,3.055c0,2.036,1.343,3.407,3.136,3.562c0.932,0.08,1.548-0.103,2.014-0.263L105.867,39.045z"/>
		<path fill="#FFFFFF" d="M109.408,34.91l0.038,0.003c0.224-0.29,0.54-0.646,0.803-0.934l2.648-2.814l1.978,0.17l-3.488,3.326
			l3.973,5.539l-1.996-0.174l-3.114-4.498l-0.841,0.838v3.315l-1.623-0.143V26.613l1.623,0.138V34.91z"/>
		<path fill="#FFFFFF" d="M117.446,36.262c0.038,2.174,1.455,3.19,3.097,3.335c1.176,0.104,1.885-0.035,2.501-0.237l0.279,1.175
			c-0.578,0.205-1.566,0.41-3.004,0.284c-2.778-0.244-4.439-2.177-4.439-4.839s1.604-4.622,4.233-4.396
			c2.949,0.254,3.731,2.86,3.731,4.486c0,0.328-0.036,0.581-0.055,0.743L117.446,36.262z M122.26,35.529
			c0.019-1.02-0.429-2.646-2.276-2.807c-1.66-0.144-2.388,1.29-2.518,2.392L122.26,35.529z"/>
		<path fill="#FFFFFF" d="M127.854,29.913v2.54l2.35,0.203v1.226l-2.35-0.204v4.771c0,1.096,0.317,1.745,1.231,1.826
			c0.43,0.038,0.745,0.011,0.951-0.025l0.074,1.213c-0.316,0.101-0.82,0.146-1.455,0.091c-0.765-0.067-1.381-0.359-1.771-0.833
			c-0.467-0.516-0.635-1.316-0.635-2.357v-4.824l-1.398-0.121v-1.224l1.398,0.121v-2.12L127.854,29.913z"/>
		<path fill="#FFFFFF" d="M131.825,40.004c0.485,0.354,1.344,0.759,2.164,0.832c1.193,0.105,1.753-0.431,1.753-1.163
			c0-0.77-0.466-1.23-1.679-1.777c-1.623-0.709-2.387-1.654-2.387-2.715c0-1.427,1.174-2.495,3.115-2.326
			c0.914,0.079,1.717,0.405,2.22,0.741l-0.411,1.137c-0.354-0.25-1.007-0.601-1.846-0.674c-0.972-0.085-1.513,0.417-1.513,1.076
			c0,0.731,0.541,1.108,1.718,1.65c1.566,0.724,2.369,1.563,2.369,2.881c0,1.557-1.231,2.546-3.378,2.355
			c-0.987-0.087-1.901-0.406-2.536-0.828L131.825,40.004z"/>
		<polygon fill="#FFFFFF" points="206.134,105.431 193.428,87.595 87.047,77.257 99.911,95.171 		"/>
		<path fill="#E6AA00" d="M36.979,175.606l0.935,5.568c0.237,1.594-0.861,3.077-2.455,3.314c-1.593,0.238-3.076-0.862-3.313-2.454
			l-0.936-5.568L36.979,175.606z"/>
		<polygon fill="#FFFFFF" points="31.271,178.313 37.328,177.379 36.437,170.864 30.437,171.61 		"/>
		<path fill="#373735" d="M30.741,176.605c-2.277-17.948,3.647-29.796,9.02-36.574c6.747-8.515,16.342-13.819,27.019-14.938
			l0.687,6.538c-8.904,0.934-16.913,5.367-22.553,12.483c-4.588,5.79-9.64,15.983-7.65,31.664L30.741,176.605z"/>
		<path fill="#E6AA00" d="M138.786,143.846l2.887-3.362c1.098-1.287,3.031-1.439,4.317-0.341c1.287,1.1,1.439,3.032,0.341,4.319
			l-2.887,3.362L138.786,143.846z"/>
		<polygon fill="#FFFFFF" points="139.54,152.423 134.867,148.028 139.496,142.937 144.229,147.134 		"/>
		<polygon fill="#324B66" points="81.221,198.908 96.872,202.838 87.866,286.449 80.825,288.519 		"/>
		<path fill="#2C2C2A" d="M80.825,288.503v4.718l15.497-3.195c0-1.656-4.253-3.591-8.339-3.591L80.825,288.503z"/>
		<polygon fill="#324B66" points="61.374,198.908 77.025,202.838 59.865,284.702 52.825,286.771 		"/>
		<path fill="#2C2C2A" d="M52.825,286.757v4.718l15.496-3.196c0-1.656-4.253-3.591-8.339-3.591L52.825,286.757z"/>
		<polygon fill="#2C2C2A" points="52.637,220.107 58.575,188.733 79.804,184.5 101.85,188.336 109.361,220.146 		"/>
		<path fill="#373735" d="M93.862,133.787l8.01,54.567l-43.326,0.647l1.743-60.265l7.361-4.571l15.081,1.395l7.869,2.674
			C92.705,128.994,93.374,130.439,93.862,133.787"/>
		<path fill="#373735" d="M87.968,135.039c9.874,20.369,15.059,31.104,26.039,32.616c0.664,0.092,1.331,0.139,2.006,0.139
			c7.433,0,15.628-5.623,26.873-18.307l-5.454-4.838c-10.035,11.318-17.37,16.475-22.429,15.785
			c-6.428-0.887-14.971-15.634-22.103-30.232C91.517,127.48,85.301,129.54,87.968,135.039"/>
		
			<rect x="72.403" y="109.657" transform="matrix(0.9964 0.0846 -0.0846 0.9964 10.4678 -6.1552)" fill="#F8AF00" width="10.896" height="21.523"/>
		<polygon fill="#B98000" points="98.785,96.269 102.061,104.76 98.093,104.423 		"/>
		<path fill="#F8AF00" d="M77.981,118.142c-16.6-1.41-19.462-12.499-17.678-33.503l3.428-5.729l17.457,1.483l17.456,1.482
			l2.413,6.226C99.273,109.104,94.581,119.552,77.981,118.142"/>
		<path fill="#202A24" d="M94.603,95.455c0.097-1.146,1.105-1.996,2.251-1.898s1.997,1.105,1.899,2.252
			c-0.098,1.146-1.105,1.995-2.251,1.898C95.355,97.609,94.506,96.602,94.603,95.455"/>
		<path fill="#4C7AB8" d="M82.748,95.818c0.229-2.688,2.571-4.683,5.252-4.503V91.31l0.05,0.005c0.015,0.001,0.027-0.002,0.04-0.001
			s0.025,0.006,0.038,0.008l15.525,1.318c1.533-18.065-9.46-27.517-21.032-28.388c-11.554-1.094-23.892,5.684-25.426,23.749
			l-4.705,55.156l30.883,2.623l3.793-44.638C84.493,100.867,82.521,98.507,82.748,95.818"/>
		<path fill="#4C7AB8" d="M88.051,91.314l0.077,0.007c-0.013-0.002-0.024-0.007-0.037-0.008
			C88.076,91.312,88.064,91.315,88.051,91.314"/>
		<path fill="#00081C" d="M15.911,290.868c0,1.884,1.375,3.605,3.076,3.844c1.699,0.238,3.079-1.098,3.079-2.98v-2.945
			c0-1.882-1.38-3.604-3.079-3.843c-1.701-0.238-3.076,1.098-3.076,2.98V290.868z"/>
		<path fill="#00081C" d="M44.442,282.444c0,1.884,1.375,3.604,3.075,3.844c1.7,0.238,3.08-1.098,3.08-2.98v-2.945
			c0-1.882-1.38-3.605-3.08-3.843c-1.7-0.238-3.075,1.098-3.075,2.98V282.444z"/>
		<path fill="#00081C" d="M0.392,281.021c0,1.884,1.375,3.605,3.076,3.844c1.699,0.238,3.079-1.097,3.079-2.98v-2.944
			c0-1.883-1.38-3.605-3.079-3.844c-1.701-0.238-3.076,1.098-3.076,2.98V281.021z"/>
		<polygon fill="#AF5494" points="51.565,281.746 33.343,271.253 0,211.302 33.021,201.536 51.565,212.259 		"/>
		<polygon fill="#842372" points="18.552,291.522 0.007,280.8 0.007,211.312 18.552,222.034 		"/>
		<polygon fill="#2F3639" points="43.683,207.711 10.59,217.508 10.59,286.934 7.104,284.902 7.104,215.413 40.097,205.639 		"/>
		<polygon fill="#89457C" points="18.558,291.523 51.568,281.747 51.568,212.259 18.558,222.035 		"/>
		<polygon fill="#AF5494" points="20.769,289.371 51.452,280.283 51.452,216.189 20.769,225.277 		"/>
		<path fill="#283341" d="M35.207,207.091l-1.981-1.156c-0.154-0.087-0.345-0.121-0.552-0.087l-1.709,0.501v2.554l2.34,1.453
			l2.734-0.806C36.027,208.837,35.859,207.532,35.207,207.091"/>
		<path fill="#3C495D" d="M33.272,207.459l0.224,0.173c0.57-0.225,1.571-0.449,1.848-0.259
			C34.878,207.01,34.102,207.131,33.272,207.459"/>
		<polygon fill="#1C2632" points="33.305,210.355 33.305,207.727 30.965,206.349 30.965,208.903 		"/>
		<path fill="#283341" d="M21.301,213.354l1.95-0.569c1.66-0.481,1.049-1.247,3.792-2.086c2.426-0.742,2.871,0.19,4.714-0.433
			l1.219-0.38v-1.842c-0.024-0.241-0.112-0.363-0.357-0.504l-1.365-0.84c-0.314-0.176-2.504-0.421-5.375,0.473
			c-1.89,0.542-5.443,1.891-6.284,2.854v2.258L21.301,213.354z"/>
		<path fill="#1C2632" d="M21.344,213.38v-1.864c0-0.346-0.104-0.535-0.312-0.656l-1.433-0.863l-0.017,2.28L21.344,213.38z"/>
		<path fill="#3C495D" d="M21.413,210.825c1.053-1.001,7.198-3.608,11.083-3.073c0.274,0.087,0.327,0.346,0.172,0.363
			c-0.915-0.035-5.904,0.017-11.048,3.072C21.637,211.102,21.568,210.895,21.413,210.825"/>
		<path fill="#283341" d="M17.595,215.017l3.274-0.957v-2.731c0.008-0.398-0.026-0.586-0.285-0.724l-1.081-0.66
			c-0.363-0.126-0.57-0.073-0.898,0.047l-1.397,0.414c-1.175,0.311-1.451,1.971-1.518,3.284L17.595,215.017z"/>
		<path fill="#3C495D" d="M17.654,214.74c0.119-1.188,0.479-2.879,2.878-3.604c0.276-0.069,0.087-0.409-0.229-0.311
			c-0.732,0.237-2.726,0.872-2.982,3.659L17.654,214.74z"/>
		<polygon fill="#7C8285" points="40.441,194.772 42.859,193.949 44.628,195.048 42.208,196.76 		"/>
		<polygon fill="#2F3639" points="42.228,195.849 40.434,194.797 40.434,217.246 42.228,218.298 42.628,217.786 42.628,196.631 		
			"/>
		<polygon fill="#4C5255" points="42.218,195.848 44.629,195.048 44.629,217.55 42.218,218.35 		"/>
		<path fill="#61696D" d="M43.372,177.656l-1.752,0.526c0,0,0.002,16.472,0.002,16.477c0,0.485,0.395,0.822,0.88,0.753
			c0.452-0.064,0.87-0.369,0.87-0.907V177.656z"/>
		<polygon fill="#2F3639" points="42.604,175.688 39.63,176.57 39.63,179.863 41.815,181.071 44.291,178.481 44.853,176.862 		"/>
		<polygon fill="#4C5255" points="44.851,180.176 41.822,181.072 41.822,177.779 44.851,176.877 		"/>
		<path fill="#3F4548" d="M40.058,177.456c0.646,0.081,2.091,1.74,1.296,3.063c-1.479,1.427-9.404,3.385-11.299,3.468l-1.387-3.227
			C30.37,179.155,38.594,177.073,40.058,177.456"/>
		<path fill="#4C5255" d="M40.805,177.949c-3.456,0.081-9.05,1.933-11.364,3.438l0.523,1.027c2.12-0.357,10.182-2.548,11.497-3.429
			C41.317,178.58,41.068,178.223,40.805,177.949"/>
		<polygon fill="#7C8285" points="26.426,199.072 28.844,198.249 30.612,199.348 28.193,201.059 		"/>
		<polygon fill="#2F3639" points="28.212,200.147 26.418,199.097 26.418,221.546 28.212,222.597 28.613,222.087 28.613,200.931 		
			"/>
		<polygon fill="#4C5255" points="28.202,200.146 30.613,199.348 30.613,221.85 28.202,222.649 		"/>
		<path fill="#61696D" d="M29.356,181.956l-1.752,0.526c0,0,0.002,16.472,0.002,16.477c0,0.485,0.395,0.822,0.88,0.753
			c0.452-0.064,0.87-0.369,0.87-0.907V181.956z"/>
		<polygon fill="#2F3639" points="28.589,179.987 25.615,180.87 25.615,184.163 27.8,185.371 30.275,182.781 30.837,181.162 		"/>
		<polygon fill="#4C5255" points="30.835,184.475 27.807,185.371 27.807,182.078 30.835,181.177 		"/>
	</g>
</g>
</svg>
